<?xml version="1.0" encoding="utf-8"?>
<!-- Generator: Adobe Illustrator 21.0.2, SVG Export Plug-In . SVG Version: 6.00 Build 0)  -->
<svg version="1.1" id="Layer_1" xmlns="http://www.w3.org/2000/svg" xmlns:xlink="http://www.w3.org/1999/xlink" x="0px" y="0px"
	 viewBox="0 0 360 122.5" style="enable-background:new 0 0 360 122.5;" xml:space="preserve">
<style type="text/css">
	.st0{fill:url(#SVGID_1_);}
	.st1{fill:url(#SVGID_2_);}
	.st2{fill:#171A6B;}
	.st3{fill:url(#SVGID_3_);}
	.st4{fill:url(#SVGID_4_);}
	.st5{fill:url(#SVGID_5_);}
	.st6{fill:url(#SVGID_6_);}
	.st7{fill:url(#SVGID_7_);}
	.st8{fill:url(#SVGID_8_);}
	.st9{fill:url(#SVGID_9_);}
</style>
<g>
	<g>
		<g>
			<linearGradient id="SVGID_1_" gradientUnits="userSpaceOnUse" x1="93.318" y1="79.5053" x2="93.318" y2="63.4352">
				<stop  offset="0" style="stop-color:#A6DCD0"/>
				<stop  offset="0.5149" style="stop-color:#83CFC7"/>
				<stop  offset="1" style="stop-color:#2DADBA"/>
			</linearGradient>
			<path class="st0" d="M93.3,79.5c-4.3,0-7.7-3.6-7.7-8c0-4.4,3.5-8,7.7-8c4.3,0,7.7,3.6,7.7,8C101,75.9,97.6,79.5,93.3,79.5z
				 M93.3,65.1c-3.3,0-6.1,2.8-6.1,6.3c0,3.5,2.7,6.3,6.1,6.3s6.1-2.8,6.1-6.3C99.4,68,96.7,65.1,93.3,65.1z"/>
			<linearGradient id="SVGID_2_" gradientUnits="userSpaceOnUse" x1="93.318" y1="83.4904" x2="93.318" y2="59.4497">
				<stop  offset="0" style="stop-color:#A6DCD0"/>
				<stop  offset="0.5149" style="stop-color:#83CFC7"/>
				<stop  offset="1" style="stop-color:#2DADBA"/>
			</linearGradient>
			<path class="st1" d="M93.3,83.5c-6.4,0-11.5-5.4-11.5-12c0-6.6,5.2-12,11.5-12c6.4,0,11.5,5.4,11.5,12
				C104.9,78.1,99.7,83.5,93.3,83.5z M93.3,61.6c-5.2,0-9.5,4.4-9.5,9.9c0,5.4,4.3,9.9,9.5,9.9c5.2,0,9.5-4.4,9.5-9.9
				C102.8,66,98.6,61.6,93.3,61.6z"/>
		</g>
		<path class="st2" d="M93.3,67.1c-1.8,0-3.3,1.2-3.9,2.8c-5.5,2.9-11,5.7-16.5,8.6c-1.1-1.1-2.1-2.1-3.2-3.2c-1-1-2.5-1.2-3.7-0.5
			c-4.6,2.4-9.2,4.8-13.8,7.2c-1.2-1.1-2.3-2.2-3.5-3.4c2-0.5,3.9-1.2,5.7-2c8.4-4.1,14.7-12.8,16.2-22.3c1-6.1,0.5-12.6,0.5-18.8
			c0-1.7-1.4-3.2-3.1-3.2c-1.8,0-3.6,0-5.3,0c-4,0-4,6.4,0,6.4c0.8,0,1.5,0,2.3,0c0,3.3,0,6.6,0,10c-0.1,8.1-3.8,16-10.4,20.5
			c-6.7,4.6-15.4,5.3-22.5,1.4c-7-3.8-11.9-11.2-12.6-19.5c-0.3-4.1-0.2-8.3-0.1-12.4c1.1,0,2.3,0,3.4,0c4,0,4-6.4,0-6.4
			c-2.1,0-4.3,0-6.4,0c-1.7,0-3.1,1.5-3.1,3.2c0,5-0.2,10.1,0.1,15C13.9,60.4,19,69.6,27.1,75c4,2.6,8.6,4.1,13.3,4.4
			c0.1,0.1,0.1,0.1,0.2,0.2c3,2.9,6,5.7,8.9,8.6c1.1,1,2.5,1.2,3.7,0.5c4.6-2.4,9.1-4.8,13.7-7.1c1.1,1.1,2.1,2.1,3.2,3.2
			c1,1,2.5,1.2,3.7,0.5c6.1-3.2,12.2-6.3,18.3-9.5c0.4,0.1,0.8,0.2,1.2,0.2c2.3,0,4.2-2,4.2-4.4C97.5,69.1,95.6,67.1,93.3,67.1z"/>
	</g>
	<g>
		<g>
			<g>
				<path class="st2" d="M129.2,73.2h-11.3v15.4h-4.2v-35h17.5v3.8h-13.3v12h11.3V73.2z"/>
				<path class="st2" d="M144.2,89.2c-1.5,0-2.8-0.2-4-0.7c-1.2-0.5-2.2-1.2-3.1-2.1c-0.8-1-1.5-2.2-1.9-3.6
					c-0.4-1.5-0.7-3.2-0.7-5.2v-2.9c0-2.3,0.3-4.2,0.8-5.8c0.5-1.6,1.2-2.9,2.1-3.8c0.9-1,1.8-1.7,2.9-2.1c1.1-0.4,2.3-0.6,3.4-0.6
					c1.6,0,2.9,0.3,4,0.8c1.1,0.5,2,1.3,2.7,2.4c0.7,1,1.2,2.3,1.5,3.8c0.3,1.5,0.5,3.3,0.5,5.3V77h-13.9v0.6c0,2.8,0.5,4.8,1.5,6.1
					c1,1.3,2.5,1.9,4.3,1.9c0.7,0,1.3-0.1,1.9-0.2c0.6-0.1,1.1-0.3,1.5-0.6c0.5-0.3,0.9-0.6,1.3-0.9c0.4-0.4,0.7-0.8,1.1-1.2
					l2.1,2.7c-0.3,0.5-0.7,1-1.2,1.4c-0.5,0.5-1,0.9-1.7,1.2c-0.7,0.4-1.4,0.7-2.3,0.9C146.3,89,145.3,89.2,144.2,89.2z M143.8,65.9
					c-0.7,0-1.4,0.1-2,0.3c-0.6,0.2-1.1,0.6-1.6,1.2c-0.5,0.6-0.8,1.3-1.1,2.3c-0.3,1-0.4,2.2-0.5,3.6h9.8v-0.6c0-1-0.1-1.9-0.3-2.8
					c-0.2-0.8-0.4-1.6-0.8-2.2c-0.3-0.6-0.8-1.1-1.4-1.4C145.4,66,144.7,65.9,143.8,65.9z"/>
				<path class="st2" d="M166.3,89.2c-1.5,0-2.8-0.2-4-0.7c-1.2-0.5-2.2-1.2-3.1-2.1c-0.8-1-1.5-2.2-1.9-3.6
					c-0.4-1.5-0.7-3.2-0.7-5.2v-2.9c0-2.3,0.3-4.2,0.8-5.8c0.5-1.6,1.2-2.9,2.1-3.8c0.9-1,1.8-1.7,2.9-2.1c1.1-0.4,2.3-0.6,3.4-0.6
					c1.6,0,2.9,0.3,4,0.8c1.1,0.5,2,1.3,2.7,2.4c0.7,1,1.2,2.3,1.5,3.8c0.3,1.5,0.5,3.3,0.5,5.3V77h-13.9v0.6c0,2.8,0.5,4.8,1.5,6.1
					c1,1.3,2.5,1.9,4.3,1.9c0.7,0,1.3-0.1,1.9-0.2c0.6-0.1,1.1-0.3,1.5-0.6c0.5-0.3,0.9-0.6,1.3-0.9c0.4-0.4,0.7-0.8,1.1-1.2
					l2.1,2.7c-0.3,0.5-0.7,1-1.2,1.4c-0.5,0.5-1,0.9-1.7,1.2c-0.7,0.4-1.4,0.7-2.3,0.9C168.4,89,167.4,89.2,166.3,89.2z M165.9,65.9
					c-0.7,0-1.4,0.1-2,0.3c-0.6,0.2-1.1,0.6-1.6,1.2c-0.5,0.6-0.8,1.3-1.1,2.3c-0.3,1-0.4,2.2-0.5,3.6h9.8v-0.6c0-1-0.1-1.9-0.3-2.8
					c-0.2-0.8-0.4-1.6-0.8-2.2c-0.3-0.6-0.8-1.1-1.4-1.4C167.5,66,166.8,65.9,165.9,65.9z"/>
				<path class="st2" d="M178.7,74.5c0-2.1,0.2-4,0.6-5.5c0.4-1.6,1-2.8,1.7-3.8c0.7-1,1.6-1.7,2.6-2.2c1-0.5,2.2-0.7,3.4-0.7
					c1.2,0,2.3,0.3,3.2,0.8c0.9,0.5,1.7,1.3,2.3,2.2V51.8h4.1v36.9H193l-0.2-2.8c-0.6,1.1-1.4,1.9-2.4,2.4c-0.9,0.6-2.1,0.8-3.4,0.8
					c-1.2,0-2.4-0.3-3.4-0.8c-1-0.5-1.9-1.3-2.6-2.3c-0.7-1-1.3-2.3-1.7-3.8c-0.4-1.5-0.6-3.3-0.6-5.4V74.5z M182.8,76.9
					c0,2.9,0.4,5.1,1.2,6.4c0.8,1.4,2.2,2.1,4.1,2.1c1.1,0,2.1-0.3,2.8-0.9c0.7-0.6,1.3-1.4,1.8-2.3V69.1c-0.5-0.9-1.1-1.7-1.8-2.2
					c-0.7-0.6-1.6-0.9-2.7-0.9c-1.9,0-3.3,0.7-4.1,2.1c-0.8,1.4-1.2,3.5-1.2,6.4V76.9z"/>
			</g>
			<linearGradient id="SVGID_3_" gradientUnits="userSpaceOnUse" x1="211.9038" y1="88.6808" x2="211.9038" y2="53.7221">
				<stop  offset="0" style="stop-color:#A6DCD0"/>
				<stop  offset="0.5149" style="stop-color:#83CFC7"/>
				<stop  offset="1" style="stop-color:#2DADBA"/>
			</linearGradient>
			<path class="st3" d="M219.9,74.4h-10.5v14.3h-6.8v-35h18.6v5.9h-11.8v9h10.5V74.4z"/>
			<linearGradient id="SVGID_4_" gradientUnits="userSpaceOnUse" x1="233.6007" y1="89.161" x2="233.6007" y2="62.2217">
				<stop  offset="0" style="stop-color:#A6DCD0"/>
				<stop  offset="0.5149" style="stop-color:#83CFC7"/>
				<stop  offset="1" style="stop-color:#2DADBA"/>
			</linearGradient>
			<path class="st4" d="M223.5,74.9c0-2,0.2-3.8,0.7-5.4c0.5-1.6,1.2-2.9,2-4c0.9-1.1,1.9-1.9,3.2-2.4c1.2-0.6,2.6-0.8,4.2-0.8
				c1.6,0,3,0.3,4.2,0.8c1.2,0.6,2.3,1.4,3.2,2.4c0.9,1.1,1.6,2.4,2,4c0.5,1.6,0.7,3.4,0.7,5.4v1.7c0,2-0.2,3.9-0.7,5.4
				c-0.5,1.6-1.1,2.9-2,4c-0.9,1.1-1.9,1.9-3.2,2.4c-1.2,0.5-2.6,0.8-4.2,0.8c-1.6,0-3-0.3-4.2-0.8c-1.2-0.5-2.3-1.4-3.2-2.4
				c-0.9-1.1-1.6-2.4-2-4c-0.5-1.6-0.7-3.4-0.7-5.4V74.9z M230,76.6c0,2.4,0.3,4.2,0.9,5.3c0.6,1.1,1.5,1.7,2.6,1.7
				c1.2,0,2.1-0.6,2.7-1.7c0.6-1.1,0.9-2.9,0.9-5.3v-1.7c0-2.4-0.3-4.1-0.9-5.3c-0.6-1.1-1.5-1.7-2.7-1.7c-1.1,0-2,0.6-2.6,1.7
				c-0.6,1.1-0.9,2.9-0.9,5.3V76.6z"/>
			<linearGradient id="SVGID_5_" gradientUnits="userSpaceOnUse" x1="253.9377" y1="88.6808" x2="253.9377" y2="62.2217">
				<stop  offset="0" style="stop-color:#A6DCD0"/>
				<stop  offset="0.5149" style="stop-color:#83CFC7"/>
				<stop  offset="1" style="stop-color:#2DADBA"/>
			</linearGradient>
			<path class="st5" d="M260.1,69.3c-0.3,0-0.6-0.1-1.1-0.1c-0.4,0-0.8-0.1-1.1-0.1c-0.9,0-1.7,0.2-2.3,0.6c-0.6,0.4-1,1-1.3,1.8
				v17.2h-6.5v-26h6.2l0.2,2.8c0.5-1,1.1-1.8,1.8-2.4c0.7-0.6,1.5-0.9,2.5-0.9c0.3,0,0.6,0,1,0.1c0.3,0.1,0.6,0.1,0.8,0.2
				L260.1,69.3z"/>
			<linearGradient id="SVGID_6_" gradientUnits="userSpaceOnUse" x1="276.3383" y1="88.6808" x2="276.3383" y2="62.7019">
				<stop  offset="0" style="stop-color:#A6DCD0"/>
				<stop  offset="0.5149" style="stop-color:#83CFC7"/>
				<stop  offset="1" style="stop-color:#2DADBA"/>
			</linearGradient>
			<path class="st6" d="M282,77.3l2.2-14.6h6.2l-5.2,26h-5.4l-3.5-15l-3.5,15h-5.4l-5.2-26h6.3l2.2,14.6l3.3-14.6h4.6L282,77.3z"/>
			<linearGradient id="SVGID_7_" gradientUnits="userSpaceOnUse" x1="302.5431" y1="89.161" x2="302.5431" y2="62.2217">
				<stop  offset="0" style="stop-color:#A6DCD0"/>
				<stop  offset="0.5149" style="stop-color:#83CFC7"/>
				<stop  offset="1" style="stop-color:#2DADBA"/>
			</linearGradient>
			<path class="st7" d="M305.5,88.7c-0.1-0.3-0.2-0.6-0.3-0.9c-0.1-0.3-0.2-0.7-0.2-1.1c-0.5,0.7-1.1,1.3-1.9,1.8s-1.7,0.7-2.8,0.7
				c-1,0-2-0.2-2.8-0.6c-0.9-0.4-1.7-0.9-2.3-1.6c-0.7-0.7-1.2-1.5-1.5-2.4c-0.4-1-0.6-2-0.6-3.2c0-1.3,0.2-2.5,0.6-3.6s1-2,1.8-2.7
				c0.8-0.7,1.9-1.3,3.1-1.7c1.2-0.4,2.7-0.6,4.4-0.6h1.8v-2.1c0-1.2-0.2-2-0.6-2.5c-0.4-0.5-0.9-0.7-1.7-0.7
				c-0.8,0-1.5,0.3-1.9,0.8c-0.4,0.5-0.6,1.3-0.6,2.2h-6.5c0-1.1,0.2-2.2,0.6-3.2c0.4-1,1-1.9,1.8-2.6c0.8-0.8,1.8-1.3,2.9-1.8
				c1.1-0.4,2.4-0.7,3.8-0.7c1.2,0,2.4,0.2,3.4,0.5c1,0.3,2,0.8,2.7,1.5c0.8,0.7,1.4,1.6,1.8,2.7c0.4,1.1,0.6,2.4,0.6,3.9v11.5
				c0,0.8,0,1.4,0.1,2c0,0.6,0.1,1.1,0.2,1.6c0.1,0.5,0.2,0.9,0.3,1.3c0.1,0.4,0.2,0.7,0.4,1.1v0.4H305.5z M301.7,83.8
				c0.7,0,1.3-0.2,1.8-0.5c0.5-0.3,0.9-0.7,1.1-1.1v-5.4h-1.5c-0.6,0-1.1,0.1-1.6,0.3c-0.4,0.2-0.8,0.5-1.1,0.9
				c-0.3,0.4-0.5,0.8-0.7,1.3c-0.1,0.5-0.2,1-0.2,1.6c0,0.9,0.2,1.7,0.6,2.1C300.5,83.6,301,83.8,301.7,83.8z"/>
			<linearGradient id="SVGID_8_" gradientUnits="userSpaceOnUse" x1="322.0959" y1="88.6808" x2="322.0959" y2="62.2217">
				<stop  offset="0" style="stop-color:#A6DCD0"/>
				<stop  offset="0.5149" style="stop-color:#83CFC7"/>
				<stop  offset="1" style="stop-color:#2DADBA"/>
			</linearGradient>
			<path class="st8" d="M328.2,69.3c-0.3,0-0.6-0.1-1.1-0.1c-0.4,0-0.8-0.1-1.1-0.1c-0.9,0-1.7,0.2-2.3,0.6c-0.6,0.4-1,1-1.3,1.8
				v17.2h-6.5v-26h6.2l0.2,2.8c0.5-1,1.1-1.8,1.8-2.4c0.7-0.6,1.5-0.9,2.5-0.9c0.3,0,0.6,0,1,0.1c0.3,0.1,0.6,0.1,0.8,0.2
				L328.2,69.3z"/>
			<linearGradient id="SVGID_9_" gradientUnits="userSpaceOnUse" x1="340" y1="89.161" x2="340" y2="51.8013">
				<stop  offset="0" style="stop-color:#A6DCD0"/>
				<stop  offset="0.5149" style="stop-color:#83CFC7"/>
				<stop  offset="1" style="stop-color:#2DADBA"/>
			</linearGradient>
			<path class="st9" d="M330.3,74.9c0-4.3,0.7-7.4,2.1-9.5c1.4-2.1,3.4-3.1,6-3.1c1,0,1.9,0.2,2.7,0.7c0.8,0.5,1.5,1.1,2.1,1.9v-13
				h6.6v36.9h-5.9l-0.3-2.6c-0.6,1-1.4,1.7-2.2,2.3c-0.9,0.6-1.8,0.8-2.9,0.8c-2.6,0-4.7-1.1-6-3.2c-1.4-2.1-2.1-5.2-2.1-9.4V74.9z
				 M336.8,76.6c0,1.2,0.1,2.2,0.2,3.1c0.1,0.9,0.3,1.6,0.6,2.1c0.3,0.6,0.6,1,1.1,1.2c0.4,0.3,1,0.4,1.6,0.4c0.7,0,1.3-0.2,1.8-0.5
				c0.5-0.3,0.9-0.8,1.2-1.3V69.8c-0.3-0.6-0.7-1.1-1.2-1.4c-0.5-0.3-1.1-0.5-1.7-0.5c-0.6,0-1.2,0.1-1.6,0.4
				c-0.4,0.3-0.8,0.7-1.1,1.2c-0.3,0.6-0.5,1.3-0.6,2.2c-0.1,0.9-0.2,1.9-0.2,3.2V76.6z"/>
		</g>
	</g>
</g>
</svg>
