<?xml version="1.0" encoding="UTF-8"?>
<svg width="502px" height="82px" viewBox="0 0 502 82" version="1.1" xmlns="http://www.w3.org/2000/svg" xmlns:xlink="http://www.w3.org/1999/xlink">
    <!-- Generator: Sketch 52.4 (67378) - http://www.bohemiancoding.com/sketch -->
    <title>Group</title>
    <desc>Created with Sketch.</desc>
    <g id="Page-1" stroke="none" stroke-width="1" fill="none" fill-rule="evenodd">
        <g id="Artboard" transform="translate(-611.000000, -25.000000)" fill="#FFFFFF">
            <g id="Group" transform="translate(611.000000, 25.000000)">
                <g>
                    <g transform="translate(103.000000, 39.000000)" fill-rule="nonzero" id="Shape">
                        <path d="M17.3,28.8 C11,28.8 5.8,23.7 5.8,17.3 C5.8,11 10.9,5.8 17.3,5.8 C23.6,5.8 28.8,10.9 28.8,17.3 C28.8,23.6 23.6,28.8 17.3,28.8 Z M17.3,8.3 C12.3,8.3 8.3,12.4 8.3,17.3 C8.3,22.2 12.4,26.3 17.3,26.3 C22.2,26.3 26.3,22.2 26.3,17.3 C26.3,12.4 22.3,8.3 17.3,8.3 Z"></path>
                        <path d="M17.3,34.5 C7.8,34.5 0.1,26.8 0.1,17.3 C0.1,7.8 7.8,0.1 17.3,0.1 C26.8,0.1 34.5,7.8 34.5,17.3 C34.5,26.8 26.8,34.5 17.3,34.5 Z M17.3,3.2 C9.5,3.2 3.2,9.5 3.2,17.3 C3.2,25.1 9.5,31.4 17.3,31.4 C25.1,31.4 31.4,25.1 31.4,17.3 C31.4,9.5 25.1,3.2 17.3,3.2 Z"></path>
                    </g>
                    <path d="M120.3,50.1 C117.6,50.1 115.4,51.8 114.5,54.1 C106.3,58.2 98.1,62.3 89.9,66.4 C88.3,64.9 86.8,63.3 85.2,61.8 C83.7,60.3 81.5,60.2 79.6,61.1 C72.8,64.5 65.9,67.9 59.1,71.3 C57.4,69.7 55.6,68.1 53.9,66.5 C56.8,65.8 59.7,64.9 62.4,63.6 C74.9,57.8 84.2,45.4 86.5,31.8 C88,23 87.2,13.8 87.2,4.9 C87.2,2.4 85.1,0.3 82.6,0.3 C80,0.3 77.3,0.3 74.7,0.3 C68.8,0.3 68.8,9.5 74.7,9.5 C75.8,9.5 76.9,9.5 78.1,9.5 C78.1,14.2 78.1,19 78.1,23.7 C78,35.3 72.5,46.5 62.7,53 C52.8,59.5 39.8,60.5 29.2,55 C18.8,49.6 11.5,39 10.5,27.2 C10,21.3 10.2,15.4 10.3,9.4 C12,9.4 13.7,9.4 15.3,9.4 C21.2,9.4 21.2,0.2 15.3,0.2 C12.1,0.2 8.9,0.2 5.7,0.2 C3.2,0.2 1.1,2.3 1.1,4.8 C1.1,11.9 0.7,19.2 1.2,26.3 C2.1,40.5 9.7,53.7 21.8,61.3 C27.8,65.1 34.6,67.2 41.5,67.6 C41.6,67.7 41.7,67.8 41.8,67.9 C46.2,72 50.7,76 55.1,80.1 C56.7,81.6 58.8,81.8 60.7,80.8 C67.5,77.4 74.3,74 81.1,70.6 C82.7,72.1 84.2,73.7 85.8,75.2 C87.3,76.7 89.5,76.8 91.4,75.9 C100.5,71.4 109.5,66.8 118.6,62.3 C119.2,62.5 119.7,62.6 120.3,62.6 C123.7,62.6 126.5,59.8 126.5,56.4 C126.5,52.9 123.7,50.1 120.3,50.1 Z" id="Path"></path>
                </g>
                <g transform="translate(150.000000, 28.000000)">
                    <g>
                        <polygon id="Path" points="23.7 30.8 6.8 30.8 6.8 52.8 0.5 52.8 0.5 3 26.5 3 26.5 8.4 6.8 8.4 6.8 25.5 23.7 25.5"></polygon>
                        <path d="M46,53.6 C43.8,53.6 41.8,53.3 40,52.6 C38.2,51.9 36.7,50.9 35.5,49.6 C34.3,48.2 33.3,46.5 32.6,44.4 C31.9,42.3 31.6,39.9 31.6,37 L31.6,32.8 C31.6,29.5 32,26.8 32.8,24.5 C33.6,22.2 34.6,20.4 35.9,19 C37.2,17.6 38.6,16.6 40.3,16 C41.9,15.4 43.6,15.1 45.4,15.1 C47.7,15.1 49.7,15.5 51.4,16.2 C53,17 54.4,18.1 55.4,19.6 C56.5,21.1 57.2,22.9 57.7,25.1 C58.2,27.3 58.4,29.8 58.4,32.6 L58.4,36.1 L37.7,36.1 L37.7,37 C37.7,41 38.4,43.9 39.9,45.7 C41.4,47.5 43.6,48.4 46.4,48.4 C47.4,48.4 48.4,48.3 49.2,48.1 C50,47.9 50.8,47.6 51.5,47.2 C52.2,46.8 52.8,46.4 53.4,45.9 C54,45.4 54.5,44.8 55,44.2 L58.2,48 C57.7,48.7 57.1,49.4 56.4,50.1 C55.7,50.8 54.8,51.4 53.9,51.9 C52.9,52.4 51.8,52.8 50.5,53.2 C49.1,53.4 47.6,53.6 46,53.6 Z M45.3,20.3 C44.2,20.3 43.3,20.5 42.4,20.8 C41.5,21.1 40.7,21.7 40.1,22.5 C39.4,23.3 38.9,24.4 38.5,25.8 C38.1,27.2 37.8,28.9 37.7,31 L52.3,31 L52.3,30.2 C52.2,28.8 52.1,27.4 51.8,26.2 C51.6,25 51.2,24 50.7,23.1 C50.2,22.2 49.5,21.6 48.6,21.1 C47.8,20.6 46.7,20.3 45.3,20.3 Z" id="Shape" fill-rule="nonzero"></path>
                        <path d="M78.9,53.6 C76.7,53.6 74.7,53.3 72.9,52.6 C71.1,51.9 69.6,50.9 68.4,49.6 C67.2,48.2 66.2,46.5 65.5,44.4 C64.8,42.3 64.5,39.9 64.5,37 L64.5,32.8 C64.5,29.5 64.9,26.8 65.7,24.5 C66.5,22.2 67.5,20.4 68.8,19 C70.1,17.6 71.5,16.6 73.2,16 C74.8,15.4 76.5,15.1 78.3,15.1 C80.6,15.1 82.6,15.5 84.3,16.2 C85.9,17 87.3,18.1 88.3,19.6 C89.4,21.1 90.1,22.9 90.6,25.1 C91.1,27.3 91.3,29.8 91.3,32.6 L91.3,36.1 L70.6,36.1 L70.6,37 C70.6,41 71.3,43.9 72.8,45.7 C74.3,47.5 76.5,48.4 79.3,48.4 C80.3,48.4 81.3,48.3 82.1,48.1 C82.9,47.9 83.7,47.6 84.4,47.2 C85.1,46.8 85.7,46.4 86.3,45.9 C86.9,45.4 87.4,44.8 87.9,44.2 L91.1,48 C90.6,48.7 90,49.4 89.3,50.1 C88.6,50.8 87.7,51.4 86.8,51.9 C85.8,52.4 84.7,52.8 83.4,53.2 C81.9,53.4 80.5,53.6 78.9,53.6 Z M78.2,20.3 C77.1,20.3 76.2,20.5 75.3,20.8 C74.4,21.1 73.6,21.7 73,22.5 C72.3,23.3 71.8,24.4 71.4,25.8 C71,27.2 70.7,28.9 70.6,31 L85.2,31 L85.2,30.2 C85.1,28.8 85,27.4 84.7,26.2 C84.5,25 84.1,24 83.6,23.1 C83.1,22.2 82.4,21.6 81.5,21.1 C80.6,20.6 79.5,20.3 78.2,20.3 Z" id="Shape" fill-rule="nonzero"></path>
                        <path d="M97.3,32.7 C97.3,29.7 97.6,27 98.2,24.8 C98.8,22.6 99.6,20.8 100.7,19.3 C101.8,17.9 103.1,16.8 104.6,16.1 C106.1,15.4 107.8,15.1 109.7,15.1 C111.6,15.1 113.2,15.5 114.5,16.2 C115.9,16.9 117,18 118,19.4 L118,0.2 L124.1,0.2 L124.1,52.9 L118.5,52.9 L118.2,48.9 C117.2,50.4 116.1,51.6 114.7,52.4 C113.3,53.2 111.6,53.6 109.7,53.6 C107.9,53.6 106.2,53.2 104.7,52.5 C103.2,51.8 101.9,50.7 100.8,49.3 C99.7,47.9 98.9,46 98.3,43.9 C97.7,41.7 97.4,39.2 97.4,36.2 L97.4,32.7 L97.3,32.7 Z M103.3,36.1 C103.3,40.3 103.9,43.3 105.2,45.3 C106.4,47.3 108.4,48.2 111.2,48.2 C112.9,48.2 114.3,47.8 115.3,46.9 C116.4,46.1 117.2,45 117.9,43.6 L117.9,24.9 C117.2,23.6 116.3,22.5 115.2,21.7 C114.1,20.9 112.8,20.4 111.1,20.4 C108.3,20.4 106.3,21.4 105,23.4 C103.8,25.4 103.1,28.5 103.1,32.6 L103.1,36.1 L103.3,36.1 Z" id="Shape" fill-rule="nonzero"></path>
                    </g>
                    <polygon id="Path" points="158.6 32.5 142.9 32.5 142.9 52.9 132.8 52.9 132.8 3 160.4 3 160.4 11.4 142.8 11.4 142.8 24.2 158.5 24.2 158.5 32.5"></polygon>
                    <path d="M163.9,33.1 C163.9,30.2 164.3,27.6 165,25.4 C165.7,23.2 166.7,21.3 168,19.7 C169.3,18.2 170.9,17 172.7,16.2 C174.5,15.4 176.6,15 178.9,15 C181.2,15 183.3,15.4 185.1,16.2 C187,17 188.5,18.1 189.8,19.7 C191.1,21.2 192.1,23.1 192.8,25.4 C193.5,27.6 193.9,30.2 193.9,33.1 L193.9,35.5 C193.9,38.4 193.6,41 192.9,43.2 C192.2,45.4 191.2,47.3 189.9,48.8 C188.6,50.3 187,51.5 185.2,52.3 C183.3,53.1 181.3,53.5 179,53.5 C176.7,53.5 174.6,53.1 172.8,52.3 C170.9,51.5 169.4,50.4 168.1,48.8 C166.8,47.3 165.8,45.4 165.1,43.2 C164.4,41 164,38.4 164,35.5 L164,33.1 L163.9,33.1 Z M173.7,35.6 C173.7,39.1 174.2,41.6 175.1,43.2 C176,44.8 177.3,45.6 179,45.6 C180.8,45.6 182.1,44.8 183,43.2 C183.9,41.6 184.3,39.1 184.3,35.6 L184.3,33.2 C184.3,29.8 183.8,27.3 182.9,25.7 C182,24.1 180.6,23.2 178.9,23.2 C177.3,23.2 176,24 175,25.7 C174.1,27.3 173.6,29.8 173.6,33.2 L173.6,35.6 L173.7,35.6 Z" id="Shape" fill-rule="nonzero"></path>
                    <path d="M218.3,25.2 C217.9,25.2 217.3,25.1 216.7,25 C216.1,24.9 215.5,24.9 215.1,24.9 C213.7,24.9 212.6,25.2 211.7,25.8 C210.8,26.4 210.2,27.3 209.7,28.4 L209.7,52.9 L200,52.9 L200,15.8 L209.2,15.8 L209.5,19.8 C210.2,18.3 211.1,17.2 212.2,16.3 C213.3,15.5 214.5,15.1 215.9,15.1 C216.3,15.1 216.8,15.1 217.3,15.2 C217.8,15.3 218.2,15.4 218.6,15.5 L218.3,25.2 Z" id="Path"></path>
                    <polygon id="Path" points="250.9 36.6 254.2 15.8 263.5 15.8 255.8 52.9 247.7 52.9 242.5 31.4 237.3 52.9 229.2 52.9 221.5 15.8 230.8 15.8 234.1 36.6 239 15.8 245.9 15.8"></polygon>
                    <path d="M285.9,52.9 C285.7,52.5 285.6,52.1 285.4,51.6 C285.3,51.1 285.2,50.6 285,50 C284.3,51 283.3,51.9 282.2,52.5 C281,53.2 279.6,53.5 278,53.5 C276.5,53.5 275.1,53.2 273.8,52.7 C272.5,52.2 271.3,51.4 270.4,50.5 C269.4,49.5 268.7,48.4 268.1,47 C267.5,45.6 267.3,44.1 267.3,42.4 C267.3,40.5 267.6,38.8 268.2,37.3 C268.8,35.8 269.7,34.5 270.9,33.4 C272.1,32.3 273.7,31.5 275.5,30.9 C277.3,30.3 279.5,30 282,30 L284.6,30 L284.6,27 C284.6,25.3 284.3,24.2 283.7,23.5 C283.1,22.8 282.3,22.5 281.2,22.5 C279.9,22.5 279,22.9 278.4,23.6 C277.8,24.3 277.5,25.4 277.5,26.7 L267.8,26.7 C267.8,25.1 268.1,23.6 268.7,22.1 C269.3,20.7 270.2,19.4 271.4,18.3 C272.6,17.2 274,16.4 275.7,15.7 C277.4,15.1 279.3,14.8 281.4,14.8 C283.3,14.8 285,15 286.5,15.5 C288.1,16 289.4,16.7 290.5,17.7 C291.6,18.7 292.5,20 293.2,21.5 C293.8,23 294.2,24.9 294.2,27.1 L294.2,43.6 C294.2,44.7 294.2,45.6 294.3,46.5 C294.4,47.3 294.4,48.1 294.6,48.8 C294.7,49.5 294.9,50.1 295,50.6 C295.2,51.1 295.4,51.6 295.6,52.1 L295.6,52.7 L285.9,52.7 L285.9,52.9 Z M280.2,46 C281.3,46 282.2,45.8 282.9,45.3 C283.7,44.9 284.2,44.4 284.6,43.8 L284.6,36.1 L282.3,36.1 C281.4,36.1 280.6,36.2 279.9,36.5 C279.2,36.8 278.7,37.2 278.2,37.7 C277.8,38.2 277.4,38.8 277.2,39.6 C277,40.3 276.9,41.1 276.9,41.9 C276.9,43.2 277.2,44.3 277.7,45 C278.4,45.6 279.2,46 280.2,46 Z" id="Shape" fill-rule="nonzero"></path>
                    <path d="M319.7,25.2 C319.3,25.2 318.7,25.1 318.1,25 C317.5,24.9 316.9,24.9 316.5,24.9 C315.1,24.9 314,25.2 313.1,25.8 C312.2,26.4 311.6,27.3 311.1,28.4 L311.1,52.9 L301.4,52.9 L301.4,15.8 L310.6,15.8 L310.9,19.8 C311.6,18.3 312.5,17.2 313.6,16.3 C314.7,15.5 315.9,15.1 317.3,15.1 C317.7,15.1 318.2,15.1 318.7,15.2 C319.2,15.3 319.6,15.4 320,15.5 L319.7,25.2 Z" id="Path"></path>
                    <path d="M322.7,33.2 C322.7,27.1 323.7,22.6 325.8,19.6 C327.9,16.6 330.9,15.1 334.8,15.1 C336.3,15.1 337.7,15.4 338.8,16.1 C340,16.8 341,17.7 341.9,18.8 L341.9,0.2 L351.7,0.2 L351.7,52.9 L342.9,52.9 L342.5,49.1 C341.6,50.5 340.5,51.6 339.2,52.4 C337.9,53.2 336.5,53.6 334.8,53.6 C330.9,53.6 327.9,52.1 325.8,49 C323.8,46 322.7,41.5 322.7,35.6 L322.7,33.2 Z M332.4,35.6 C332.4,37.3 332.5,38.8 332.6,40 C332.8,41.2 333,42.3 333.4,43.1 C333.8,43.9 334.3,44.5 335,44.9 C335.7,45.3 336.5,45.5 337.5,45.5 C338.5,45.5 339.4,45.3 340.1,44.8 C340.8,44.3 341.4,43.7 341.8,42.9 L341.8,26 C341.3,25.1 340.8,24.5 340,24 C339.3,23.5 338.4,23.3 337.4,23.3 C336.4,23.3 335.6,23.5 335,23.9 C334.3,24.3 333.8,24.9 333.4,25.7 C333,26.5 332.7,27.5 332.5,28.8 C332.3,30.1 332.2,31.6 332.2,33.3 L332.2,35.6 L332.4,35.6 Z" id="Shape" fill-rule="nonzero"></path>
                </g>
            </g>
        </g>
    </g>
</svg>