<?xml version="1.0" encoding="UTF-8"?>
<svg width="403px" height="328px" viewBox="0 0 403 328" version="1.1" xmlns="http://www.w3.org/2000/svg" xmlns:xlink="http://www.w3.org/1999/xlink">
    <!-- Generator: Sketch 52.4 (67378) - http://www.bohemiancoding.com/sketch -->
    <title>Group 23</title>
    <desc>Created with Sketch.</desc>
    <defs>
        <path d="M47.99,24.447 C47.99,37.433 37.463,47.961 24.476,47.961 C11.49,47.961 0.962,37.433 0.962,24.447 C0.962,11.462 11.49,0.934 24.476,0.934 C37.463,0.934 47.99,11.462 47.99,24.447" id="path-1"></path>
        <path d="M47.063,23.922 C47.063,36.909 36.536,47.436 23.55,47.436 C10.564,47.436 0.036,36.909 0.036,23.922 C0.036,10.935 10.564,0.408 23.55,0.408 C36.536,0.408 47.063,10.935 47.063,23.922" id="path-3"></path>
    </defs>
    <g id="Page-1" stroke="none" stroke-width="1" fill="none" fill-rule="evenodd">
        <g id="Feed-Forward-_-Website-Mock-Up-(Final)" transform="translate(-84.000000, -147.000000)">
            <g id="Group-23" transform="translate(84.000000, 147.000000)">
                <polyline id="Fill-7" fill="#00ACC5" points="86.36 254.484 51.828 254.484 47.846 154.739 86.36 154.739 86.36 254.484"></polyline>
                <polyline id="Fill-8" fill="#00ACC5" points="86.36 254.484 121.091 254.484 124.873 154.739 86.36 154.739 86.36 254.484"></polyline>
                <path d="M86.36,169.09 C78.161,169.09 71.439,162.77 70.801,154.734 L86.36,154.734 L86.36,169.09" id="Fill-9" fill="#8D7360"></path>
                <path d="M86.36,169.09 C94.558,169.09 101.28,162.77 101.918,154.734 L86.36,154.734 L86.36,169.09" id="Fill-10" fill="#8D6E5C"></path>
                <path d="M47.893,154.739 C33.784,154.739 22.981,170.811 22.981,191.171 C22.981,213.387 35.833,234.889 51.828,234.889 C54.196,234.889 56.498,234.494 58.701,233.749 C58.701,233.749 43.093,227.38 49.529,208.992 C49.529,208.992 39.573,202.437 48.916,178.345 L47.893,154.739" id="Fill-11" fill="#00ACC5"></path>
                <path d="M55.939,197.221 C54.915,197.221 53.891,197.221 52.867,197.221 C53.492,197.846 54.117,198.471 54.742,199.096 C54.742,189.739 54.397,173.054 67.748,173.054 C81.095,173.054 80.754,189.73 80.754,199.096 C81.379,198.471 82.004,197.846 82.629,197.221 C81.394,197.221 80.159,197.221 78.924,197.221 C76.512,197.221 76.507,200.971 78.924,200.971 C80.159,200.971 81.394,200.971 82.629,200.971 C83.642,200.971 84.504,200.111 84.504,199.096 C84.504,193.521 85.057,187.572 83.267,182.205 C81.005,175.423 75.312,169.337 67.748,169.304 C60.454,169.27 54.836,175.08 52.474,181.542 C50.435,187.119 50.992,193.26 50.992,199.096 C50.992,200.108 51.851,200.971 52.867,200.971 C53.891,200.971 54.915,200.971 55.939,200.971 C58.352,200.971 58.356,197.221 55.939,197.221" id="Fill-12" fill="#2E312F"></path>
                <path d="M124.658,154.739 C138.766,154.739 149.57,170.811 149.57,191.171 C149.57,213.387 136.718,234.889 120.723,234.889 C118.354,234.889 116.052,234.494 113.849,233.749 C113.849,233.749 129.458,227.38 123.021,208.992 C123.021,208.992 132.977,202.437 123.634,178.345 L124.658,154.739" id="Fill-13" fill="#00ACC5"></path>
                <path d="M69.551,171.178 C69.551,166.282 68.709,160.483 71.402,156.143 C75.351,149.776 82.546,150.576 88.965,150.576 C96.639,150.576 103.382,153.982 103.741,162.592 C103.907,166.548 103.741,170.546 103.741,174.507 C103.741,176.92 107.491,176.924 107.491,174.507 C107.491,168.956 108.486,162.241 106.457,156.947 C103.528,149.304 96.501,146.826 88.965,146.826 C81.812,146.826 74.717,146.363 69.57,152.36 C64.969,157.722 65.801,164.621 65.801,171.178 C65.801,173.591 69.551,173.595 69.551,171.178" id="Fill-14" fill="#2E312F"></path>
                <path d="M107.233,181.372 C104.711,182.265 101.942,180.944 101.049,178.422 C100.157,175.9 101.477,173.132 104,172.238 C106.521,171.346 109.29,172.666 110.183,175.188 C111.076,177.711 109.756,180.478 107.233,181.372" id="Fill-15" fill="#2E312F"></path>
                <path d="M106.886,180.394 C104.905,181.095 102.73,180.058 102.028,178.075 C101.327,176.094 102.364,173.919 104.345,173.217 C106.328,172.516 108.503,173.554 109.204,175.535 C109.906,177.517 108.868,179.691 106.886,180.394" id="Fill-16" fill="#00ACC5"></path>
                <polygon id="Fill-17" fill="#8D7360" points="75.911 154.739 86.36 154.739 86.36 145.309 75.911 145.309"></polygon>
                <polygon id="Fill-18" fill="#8D6E5C" points="86.36 154.739 96.808 154.739 96.808 145.309 86.36 145.309"></polygon>
                <path d="M86.316,149.126 C76.654,149.126 68.822,141.294 68.822,131.633 L68.822,106.601 L86.316,106.601 L86.316,149.126" id="Fill-19" fill="#927663"></path>
                <path d="M86.316,149.126 C95.977,149.126 103.809,141.294 103.809,131.633 L103.809,106.601 L86.316,106.601 L86.316,149.126" id="Fill-20" fill="#91715E"></path>
                <path d="M113.331,116.533 C113.331,113.896 111.485,111.64 108.866,110.694 C109.001,110.179 109.08,109.644 109.08,109.09 C109.08,106.275 107.226,103.858 104.575,102.794 L104.576,102.776 C104.576,99.289 101.35,96.462 97.371,96.462 C96.627,96.462 95.909,96.562 95.234,96.745 C93.984,94.872 91.67,93.609 89.015,93.609 C86.167,93.609 83.713,95.062 82.543,97.163 C81.34,96.372 79.85,95.897 78.23,95.897 C74.251,95.897 71.025,98.725 71.025,102.212 L71.026,102.23 C67.098,102.424 63.972,105.359 63.911,108.983 C61.261,109.916 59.388,112.185 59.388,114.84 C59.388,117.425 61.163,119.644 63.701,120.621 C63.45,121.251 63.309,121.937 63.309,122.656 C63.309,125.701 65.777,128.17 68.822,128.17 C71.868,128.17 74.337,125.701 74.337,122.656 L74.327,122.48 C76.718,121.741 78.566,119.937 79.2,117.684 C81.723,116.597 83.494,114.103 83.532,111.19 C84.683,112.081 86.122,112.617 87.69,112.617 C88.341,112.617 88.968,112.52 89.564,112.35 C89.988,114.753 91.604,116.744 93.785,117.684 C94.419,119.937 96.266,121.741 98.657,122.48 L98.648,122.656 C98.648,125.701 101.117,128.17 104.162,128.17 C107.208,128.17 109.676,125.701 109.676,122.656 C109.676,122.448 109.663,122.244 109.64,122.042 C111.84,120.962 113.331,118.901 113.331,116.533" id="Fill-21" fill="#1A1919"></path>
                <path d="M95.148,240.695 L86.36,240.695 L86.36,270.521 C89.962,270.521 93.434,270.281 96.698,269.84 L99.648,325.292 L120.891,325.292 L120.891,240.695 L95.148,240.695" id="Fill-22" fill="#00ACC5"></path>
                <path d="M86.36,240.695 L51.828,240.695 L51.828,325.292 L73.071,325.292 L76.021,269.84 C79.285,270.281 82.757,270.521 86.36,270.521 L86.36,240.695" id="Fill-23" fill="#00ACC5"></path>
                <path d="M46.171,204.06 C46.171,204.06 29.204,203.088 32.136,222.458 C32.136,222.458 44.487,240.586 58.701,233.749 L49.529,208.992 C49.529,208.992 47.191,208.182 46.171,204.06" id="Fill-24" fill="#F1F1EF"></path>
                <path d="M63.881,203.347 C65.555,202.806 67.351,203.724 67.892,205.397 C68.434,207.072 67.515,208.868 65.841,209.409 L63.682,210.107 C63.948,210.373 64.207,210.649 64.458,210.94 L66.158,210.391 C67.833,209.85 69.629,210.768 70.17,212.442 C70.711,214.116 69.793,215.912 68.118,216.454 L67.675,216.597 C67.723,216.733 67.779,216.863 67.824,217.002 C67.872,217.15 67.905,217.299 67.949,217.447 L68.393,217.304 C70.068,216.763 71.864,217.681 72.405,219.355 C72.946,221.029 72.028,222.825 70.354,223.367 L68.64,223.921 C68.608,224.282 68.562,224.639 68.506,224.99 L68.904,224.861 C70.579,224.319 72.375,225.238 72.916,226.912 C73.457,228.587 72.539,230.383 70.864,230.924 L61.977,233.798 L61.905,233.812 L61.801,233.854 C56.066,235.709 49.463,231.171 47.053,223.718 C44.643,216.266 47.34,208.721 53.075,206.866 C53.466,206.739 53.861,206.648 54.258,206.581 C54.485,206.436 54.725,206.307 54.993,206.221 L63.881,203.347" id="Fill-25" fill="#927663"></path>
                <path d="M126.38,204.06 C126.38,204.06 143.346,203.088 140.414,222.458 C140.414,222.458 128.063,240.586 113.849,233.749 L123.021,208.992 C123.021,208.992 125.36,208.182 126.38,204.06" id="Fill-26" fill="#E0E2E2"></path>
                <polygon id="Fill-27" fill="#00988F" points="50.741 244.942 86.646 244.942 86.646 240.695 50.741 240.695"></polygon>
                <polygon id="Fill-28" fill="#00988F" points="86.36 244.942 122.264 244.942 122.264 240.695 86.36 240.695"></polygon>
                <path d="M109.611,197.989 L89.347,197.989 C86.559,197.989 84.432,200.483 84.872,203.237 L88.938,228.651 C89.29,230.85 91.187,232.467 93.414,232.467 L99.479,232.467 L99.479,224.806 L99.479,232.467 L105.546,232.467 C107.772,232.467 109.669,230.85 110.02,228.651 L114.087,203.237 C114.527,200.483 112.4,197.989 109.611,197.989" id="Fill-29" fill="#505759"></path>
                <path d="M108.67,203.347 C106.996,202.806 105.2,203.724 104.659,205.397 C104.117,207.072 105.036,208.868 106.71,209.409 L108.869,210.107 C108.603,210.373 108.343,210.649 108.092,210.94 L106.392,210.391 C104.718,209.85 102.923,210.768 102.381,212.442 C101.84,214.116 102.757,215.912 104.432,216.454 L104.876,216.597 C104.828,216.733 104.772,216.863 104.727,217.002 C104.679,217.15 104.646,217.299 104.602,217.447 L104.157,217.304 C102.483,216.763 100.687,217.681 100.145,219.355 C99.604,221.029 100.523,222.825 102.197,223.367 L103.911,223.921 C103.943,224.282 103.989,224.639 104.045,224.99 L103.646,224.861 C101.972,224.319 100.176,225.238 99.634,226.912 C99.093,228.587 100.011,230.383 101.686,230.924 L110.574,233.798 L110.645,233.812 L110.75,233.854 C116.485,235.709 123.089,231.171 125.498,223.718 C127.908,216.266 125.212,208.721 119.475,206.866 C119.085,206.739 118.69,206.648 118.293,206.581 C118.066,206.436 117.826,206.307 117.557,206.221 L108.67,203.347" id="Fill-30" fill="#927663"></path>
                <path d="M93.121,205.607 L90.724,205.607 C90.137,205.607 89.657,205.128 89.657,204.541 L89.657,204.258 C89.657,203.671 90.137,203.191 90.724,203.191 L93.121,203.191 C93.708,203.191 94.188,203.671 94.188,204.258 L94.188,204.541 C94.188,205.128 93.708,205.607 93.121,205.607" id="Fill-31" fill="#FFFFFE"></path>
                <polyline id="Fill-32" fill="#00ACC5" points="325.022 254.484 290.49 254.484 286.508 154.739 325.022 154.739 325.022 254.484"></polyline>
                <polyline id="Fill-33" fill="#00ACC5" points="325.022 254.484 359.754 254.484 363.535 154.739 325.022 154.739 325.022 254.484"></polyline>
                <path d="M325.022,169.09 C316.824,169.09 310.101,162.77 309.464,154.734 L325.022,154.734 L325.022,169.09" id="Fill-34" fill="#E9B581"></path>
                <path d="M325.022,169.09 C333.22,169.09 339.942,162.77 340.58,154.734 L325.022,154.734 L325.022,169.09" id="Fill-35" fill="#DAAB7B"></path>
                <path d="M286.555,154.739 C272.446,154.739 261.643,170.811 261.643,191.171 C261.643,213.387 274.495,234.889 290.49,234.889 C292.858,234.889 295.161,234.494 297.364,233.749 C297.364,233.749 281.756,227.38 288.191,208.992 C288.191,208.992 278.236,202.437 287.579,178.345 L286.555,154.739" id="Fill-36" fill="#00ACC5"></path>
                <path d="M294.601,197.221 C293.577,197.221 292.553,197.221 291.529,197.221 C292.154,197.846 292.779,198.471 293.404,199.096 C293.404,189.739 293.059,173.054 306.41,173.054 C319.757,173.054 319.416,189.73 319.416,199.096 C320.041,198.471 320.666,197.846 321.291,197.221 C320.056,197.221 318.822,197.221 317.587,197.221 C315.173,197.221 315.17,200.971 317.587,200.971 C318.822,200.971 320.056,200.971 321.291,200.971 C322.304,200.971 323.166,200.111 323.166,199.096 C323.166,193.521 323.719,187.572 321.929,182.205 C319.667,175.423 313.974,169.337 306.41,169.304 C299.116,169.27 293.499,175.08 291.136,181.542 C289.097,187.119 289.654,193.26 289.654,199.096 C289.654,200.108 290.513,200.971 291.529,200.971 C292.553,200.971 293.577,200.971 294.601,200.971 C297.014,200.971 297.018,197.221 294.601,197.221" id="Fill-37" fill="#2E312F"></path>
                <path d="M363.32,154.739 C377.429,154.739 388.232,170.811 388.232,191.171 C388.232,213.387 375.381,234.889 359.385,234.889 C357.017,234.889 354.715,234.494 352.511,233.749 C352.511,233.749 368.12,227.38 361.684,208.992 C361.684,208.992 371.639,202.437 362.297,178.345 L363.32,154.739" id="Fill-38" fill="#00ACC5"></path>
                <path d="M308.214,171.178 C308.214,166.282 307.372,160.483 310.064,156.143 C314.013,149.776 321.209,150.576 327.628,150.576 C335.301,150.576 342.044,153.982 342.403,162.592 C342.569,166.548 342.403,170.546 342.403,174.507 C342.403,176.92 346.153,176.924 346.153,174.507 C346.153,168.956 347.148,162.241 345.12,156.947 C342.19,149.304 335.163,146.826 327.628,146.826 C320.474,146.826 313.38,146.363 308.233,152.36 C303.632,157.722 304.464,164.621 304.464,171.178 C304.464,173.591 308.214,173.595 308.214,171.178" id="Fill-39" fill="#2E312F"></path>
                <path d="M345.895,181.372 C343.373,182.265 340.605,180.944 339.712,178.422 C338.819,175.9 340.139,173.132 342.662,172.238 C345.183,171.346 347.952,172.666 348.845,175.188 C349.738,177.711 348.418,180.478 345.895,181.372" id="Fill-40" fill="#2E312F"></path>
                <path d="M345.548,180.394 C343.567,181.095 341.392,180.058 340.69,178.075 C339.989,176.094 341.026,173.919 343.008,173.217 C344.99,172.516 347.165,173.554 347.867,175.535 C348.568,177.517 347.53,179.691 345.548,180.394" id="Fill-41" fill="#00ACC5"></path>
                <polygon id="Fill-42" fill="#E9B581" points="314.574 154.739 325.022 154.739 325.022 145.309 314.574 145.309"></polygon>
                <polygon id="Fill-43" fill="#DAAB7B" points="325.022 154.739 335.47 154.739 335.47 145.309 325.022 145.309"></polygon>
                <path d="M325.216,150.128 C315.993,150.128 308.516,142.651 308.516,133.428 L308.516,109.531 L325.216,109.531 L325.216,150.128" id="Fill-44" fill="#EDBB84"></path>
                <path d="M325.216,150.128 C334.439,150.128 341.917,142.651 341.917,133.428 L341.917,109.531 L325.216,109.531 L325.216,150.128" id="Fill-45" fill="#E4B17F"></path>
                <path d="M333.81,240.695 L325.022,240.695 L325.022,270.521 C328.625,270.521 332.096,270.281 335.36,269.84 L338.31,325.292 L359.553,325.292 L359.553,240.695 L333.81,240.695" id="Fill-46" fill="#00ACC5"></path>
                <path d="M325.022,240.695 L290.49,240.695 L290.49,325.292 L311.734,325.292 L314.683,269.84 C317.948,270.281 321.42,270.521 325.022,270.521 L325.022,240.695" id="Fill-47" fill="#00ACC5"></path>
                <path d="M284.833,204.06 C284.833,204.06 267.867,203.088 270.798,222.458 C270.798,222.458 283.149,240.586 297.364,233.749 L288.191,208.992 C288.191,208.992 285.853,208.182 284.833,204.06" id="Fill-48" fill="#F1F1EF"></path>
                <path d="M302.543,203.347 C304.217,202.806 306.013,203.724 306.554,205.397 C307.095,207.072 306.177,208.868 304.504,209.409 L302.344,210.107 C302.61,210.373 302.87,210.649 303.121,210.94 L304.821,210.391 C306.495,209.85 308.291,210.768 308.832,212.442 C309.374,214.116 308.455,215.912 306.781,216.454 L306.338,216.597 C306.385,216.733 306.441,216.863 306.486,217.002 C306.534,217.15 306.567,217.299 306.611,217.447 L307.055,217.304 C308.73,216.763 310.526,217.681 311.067,219.355 C311.609,221.029 310.69,222.825 309.016,223.367 L307.302,223.921 C307.27,224.282 307.224,224.639 307.169,224.99 L307.567,224.861 C309.241,224.319 311.037,225.238 311.578,226.912 C312.12,228.587 311.201,230.383 309.527,230.924 L300.639,233.798 L300.568,233.812 L300.464,233.854 C294.728,235.709 288.125,231.171 285.715,223.718 C283.305,216.266 286.002,208.721 291.738,206.866 C292.129,206.739 292.523,206.648 292.921,206.581 C293.147,206.436 293.387,206.307 293.655,206.221 L302.543,203.347" id="Fill-49" fill="#EDBB84"></path>
                <path d="M365.043,204.06 C365.043,204.06 382.008,203.088 379.077,222.458 C379.077,222.458 366.726,240.586 352.511,233.749 L361.684,208.992 C361.684,208.992 364.022,208.182 365.043,204.06" id="Fill-50" fill="#E0E2E2"></path>
                <polygon id="Fill-51" fill="#00988F" points="289.404 244.942 325.308 244.942 325.308 240.695 289.404 240.695"></polygon>
                <polygon id="Fill-52" fill="#00988F" points="325.022 244.942 360.926 244.942 360.926 240.695 325.022 240.695"></polygon>
                <path d="M348.274,197.989 L328.009,197.989 C325.221,197.989 323.093,200.483 323.535,203.237 L327.6,228.651 C327.953,230.85 329.849,232.467 332.076,232.467 L338.141,232.467 L338.141,224.806 L338.142,232.467 L344.208,232.467 C346.434,232.467 348.331,230.85 348.682,228.651 L352.749,203.237 C353.189,200.483 351.062,197.989 348.274,197.989" id="Fill-53" fill="#505759"></path>
                <path d="M347.333,203.347 C345.658,202.806 343.862,203.724 343.321,205.397 C342.779,207.072 343.698,208.868 345.372,209.409 L347.531,210.107 C347.265,210.373 347.006,210.649 346.755,210.94 L345.054,210.391 C343.381,209.85 341.585,210.768 341.044,212.442 C340.502,214.116 341.421,215.912 343.094,216.454 L343.538,216.597 C343.49,216.733 343.434,216.863 343.389,217.002 C343.341,217.15 343.308,217.299 343.264,217.447 L342.82,217.304 C341.145,216.763 339.349,217.681 338.808,219.355 C338.266,221.029 339.185,222.825 340.859,223.367 L342.573,223.921 C342.605,224.282 342.651,224.639 342.707,224.99 L342.308,224.861 C340.634,224.319 338.839,225.238 338.298,226.912 C337.756,228.587 338.674,230.383 340.348,230.924 L349.236,233.798 L349.307,233.812 L349.412,233.854 C355.147,235.709 361.751,231.171 364.16,223.718 C366.57,216.266 363.874,208.721 358.137,206.866 C357.747,206.739 357.352,206.648 356.955,206.581 C356.728,206.436 356.488,206.307 356.22,206.221 L347.333,203.347" id="Fill-54" fill="#EDBB84"></path>
                <path d="M331.783,205.607 L329.385,205.607 C328.799,205.607 328.319,205.128 328.319,204.541 L328.319,204.258 C328.319,203.671 328.799,203.191 329.385,203.191 L331.783,203.191 C332.37,203.191 332.85,203.671 332.85,204.258 L332.85,204.541 C332.85,205.128 332.37,205.607 331.783,205.607" id="Fill-55" fill="#FFFFFE"></path>
                <path d="M314.733,114.526 C314.733,114.526 318.149,108.219 324.173,111.127 C330.196,114.036 332.506,123.678 341.24,122.322 C349.973,120.967 351.178,110.12 348.467,100.969 C348.467,100.969 349.07,108.426 343.348,105.714 C337.626,103.002 326.742,92.667 318.049,98.257 C311.724,102.324 314.733,107.748 314.733,107.748 C314.733,107.748 308.562,104.697 306.303,109.923 C303.541,116.313 308.502,122.947 308.502,122.947 C308.502,122.947 309.61,113.849 314.733,114.526" id="Fill-56" fill="#4D4239"></path>
                <polygon id="Fill-57" fill="#F1F1EF" points="165.675 268.947 207.369 268.947 207.369 140.547 165.675 140.547"></polygon>
                <polyline id="Fill-58" fill="#00ACC5" points="190.39 140.547 207.369 140.547 207.369 161.946 203.33 151.247 190.39 140.547"></polyline>
                <polyline id="Fill-59" fill="#E0E2E2" points="190.39 140.547 180.934 140.547 196.058 161.946 203.33 151.247 190.39 140.547"></polyline>
                <path d="M165.725,140.547 C150.452,140.547 138.756,157.945 138.756,179.987 C138.756,204.038 152.67,227.315 169.985,227.315 C172.549,227.315 175.042,226.889 177.426,226.082 C177.426,226.082 160.529,219.187 167.497,199.28 C167.497,199.28 156.719,192.185 166.834,166.102 L165.725,140.547" id="Fill-60" fill="#F1F1EF"></path>
                <polyline id="Fill-61" fill="#00ACC5" points="192.983 325.185 169.985 325.185 169.985 268.947 197.855 268.947 192.983 325.185"></polyline>
                <polygon id="Fill-62" fill="#E0E2E2" points="207.369 268.947 249.062 268.947 249.062 140.547 207.369 140.547"></polygon>
                <polyline id="Fill-63" fill="#00ACC5" points="224.348 140.547 207.369 140.547 207.369 161.946 211.408 151.247 224.348 140.547"></polyline>
                <polyline id="Fill-64" fill="#C6C9CA" points="224.348 140.547 233.803 140.547 218.68 161.946 211.408 151.247 224.348 140.547"></polyline>
                <polyline id="Fill-65" fill="#00ACC5" points="221.755 325.185 244.753 325.185 244.753 268.947 216.882 268.947 221.755 325.185"></polyline>
                <path d="M174.435,186.691 C173.327,186.691 172.218,186.691 171.11,186.691 C171.735,187.316 172.36,187.941 172.985,188.566 C172.985,178.399 172.606,160.219 187.219,160.219 C201.815,160.219 201.455,178.396 201.455,188.566 C202.08,187.941 202.705,187.316 203.33,186.691 C201.993,186.691 200.657,186.691 199.32,186.691 C196.907,186.691 196.903,190.441 199.32,190.441 C200.657,190.441 201.993,190.441 203.33,190.441 C204.343,190.441 205.205,189.582 205.205,188.566 C205.205,182.539 205.8,176.13 203.863,170.328 C201.449,163.103 195.34,156.432 187.219,156.469 C179.373,156.505 173.338,162.655 170.799,169.662 C168.626,175.664 169.235,182.294 169.235,188.566 C169.235,189.58 170.094,190.441 171.11,190.441 C172.218,190.441 173.327,190.441 174.435,190.441 C176.848,190.441 176.852,186.691 174.435,186.691" id="Fill-66" fill="#2E312F"></path>
                <path d="M207.643,223.41 L230.085,223.41 C232.496,223.41 234.548,221.659 234.929,219.278 L239.332,191.766 C239.808,188.784 237.506,186.084 234.487,186.084 L207.643,186.084 L207.643,223.41" id="Fill-67" fill="#505759"></path>
                <path d="M207.643,223.41 L185.201,223.41 C182.791,223.41 180.737,221.658 180.356,219.278 L175.954,191.766 C175.477,188.784 177.78,186.084 180.798,186.084 L207.643,186.084 L207.643,223.41" id="Fill-68" fill="#5E6562"></path>
                <path d="M183.034,193.169 C184.846,192.583 186.791,193.577 187.377,195.39 C187.963,197.202 186.968,199.146 185.156,199.732 L182.818,200.488 C183.106,200.775 183.387,201.075 183.659,201.39 L185.5,200.795 C187.312,200.208 189.257,201.203 189.842,203.015 C190.428,204.827 189.434,206.771 187.622,207.358 L187.141,207.514 C187.193,207.661 187.254,207.802 187.302,207.952 C187.354,208.112 187.39,208.273 187.438,208.435 L187.919,208.278 C189.731,207.692 191.675,208.687 192.262,210.499 C192.848,212.312 191.854,214.256 190.042,214.842 L188.186,215.442 C188.151,215.833 188.101,216.219 188.041,216.6 L188.472,216.46 C190.285,215.874 192.229,216.868 192.815,218.681 C193.401,220.493 192.407,222.437 190.594,223.023 L180.972,226.134 L180.895,226.151 L180.783,226.195 C174.573,228.203 167.424,223.29 164.816,215.223 C162.208,207.154 165.127,198.986 171.336,196.978 C171.758,196.842 172.186,196.743 172.617,196.67 C172.861,196.513 173.122,196.373 173.412,196.279 L183.034,193.169" id="Fill-69" fill="#EAC397"></path>
                <path d="M248.83,140.547 C264.104,140.547 275.799,157.945 275.799,179.987 C275.799,204.038 261.886,227.315 244.57,227.315 C242.007,227.315 239.514,226.889 237.129,226.082 C237.129,226.082 254.026,219.187 247.058,199.28 C247.058,199.28 257.837,192.185 247.722,166.102 L248.83,140.547" id="Fill-70" fill="#E0E2E2"></path>
                <path d="M231.522,193.169 C229.71,192.583 227.765,193.577 227.179,195.39 C226.593,197.202 227.588,199.146 229.4,199.732 L231.737,200.488 C231.449,200.775 231.168,201.075 230.897,201.39 L229.056,200.795 C227.244,200.208 225.299,201.203 224.714,203.015 C224.128,204.827 225.122,206.771 226.934,207.358 L227.414,207.514 C227.362,207.661 227.301,207.802 227.253,207.952 C227.201,208.112 227.165,208.273 227.118,208.435 L226.636,208.278 C224.824,207.692 222.88,208.687 222.294,210.499 C221.708,212.312 222.702,214.256 224.514,214.842 L226.37,215.442 C226.404,215.833 226.454,216.219 226.514,216.6 L226.084,216.46 C224.271,215.874 222.327,216.868 221.741,218.681 C221.154,220.493 222.149,222.437 223.962,223.023 L233.583,226.134 L233.66,226.151 L233.773,226.195 C239.982,228.203 247.131,223.29 249.739,215.223 C252.348,207.154 249.429,198.986 243.219,196.978 C242.797,196.842 242.369,196.743 241.939,196.67 C241.694,196.513 241.434,196.373 241.143,196.279 L231.522,193.169" id="Fill-71" fill="#EAC397"></path>
                <path d="M202.239,133.335 C202.239,133.335 201.683,138.275 197.145,138.394 C197.145,138.394 199.463,136.98 198.593,134.154 C198.593,134.154 196.083,138.747 193.38,138.394 C193.38,138.394 196.083,134.391 193.765,131.446 C193.765,131.446 193.183,135.803 189.902,134.508 C189.902,134.508 191.778,132.035 190.214,130.151 C189.048,128.749 184.383,123.558 182.026,116.496 L181.784,112.434 C181.784,112.434 183.582,108.31 188.758,107.515 C193.934,106.721 211.045,97.89 215.071,91.708 C219.096,85.526 219.096,85.526 219.096,85.526 C219.096,85.526 224.906,105.219 229.801,107.868 C234.698,110.518 237.129,112.434 237.129,112.434 C237.153,116.468 236.19,119.921 233.642,122.027 C227.632,126.736 222.539,129.445 228.332,134.391 C228.332,134.391 225.843,135.429 223.6,132.859 C223.6,132.859 221.187,135.215 224.856,137.687 C224.856,137.687 221.766,140.042 219.352,134.743 C219.352,134.743 219.256,136.274 218.483,136.863 C217.711,137.451 217.711,137.451 217.711,137.451 L216.648,133.917" id="Fill-72" fill="#A55E36"></path>
                <path d="M189.018,158.343 C189.018,153.199 188.129,146.989 190.807,142.376 C195.002,135.15 202.913,135.886 210.06,135.886 C218.47,135.886 225.966,139.567 226.34,149.037 C226.51,153.326 226.34,157.654 226.34,161.947 C226.34,164.36 230.09,164.364 230.09,161.947 C230.09,156.045 231.141,148.921 229.087,143.265 C226.018,134.815 218.29,132.136 210.06,132.136 C201.992,132.136 193.907,131.728 188.557,139.025 C184.4,144.696 185.268,151.715 185.268,158.343 C185.268,160.756 189.018,160.76 189.018,158.343" id="Fill-73" fill="#2E312F"></path>
                <path d="M229.966,169.379 C227.236,170.346 224.239,168.916 223.272,166.186 C222.305,163.455 223.735,160.458 226.465,159.491 C229.196,158.524 232.193,159.954 233.16,162.685 C234.127,165.415 232.697,168.412 229.966,169.379" id="Fill-74" fill="#2E312F"></path>
                <path d="M229.591,168.319 C227.446,169.079 225.09,167.956 224.332,165.811 C223.572,163.665 224.695,161.311 226.84,160.551 C228.986,159.791 231.34,160.915 232.1,163.06 C232.86,165.205 231.736,167.56 229.591,168.319" id="Fill-75" fill="#00ACC5"></path>
                <polygon id="Fill-76" fill="#E4BF94" points="196.058 140.547 207.369 140.547 207.369 130.338 196.058 130.338"></polygon>
                <polygon id="Fill-77" fill="#E7B489" points="207.369 140.547 218.68 140.547 218.68 130.338 207.369 130.338"></polygon>
                <path d="M207.569,135.066 C197.074,135.066 188.567,126.559 188.567,116.063 L188.567,88.873 L207.569,88.873 L207.569,135.066" id="Fill-78" fill="#EAC397"></path>
                <path d="M207.569,135.066 C218.063,135.066 226.571,126.559 226.571,116.063 L226.571,88.873 L207.569,88.873 L207.569,135.066" id="Fill-79" fill="#ECB98E"></path>
                <path d="M182.203,115.916 C182.214,112.504 186.026,111.127 191.463,110.153 C210.895,108.506 217.85,93.033 217.85,93.033 C217.85,93.033 221.138,108.442 230.111,111.127 C236.208,113.038 236.946,115.376 236.946,115.376 C238.316,106.77 231.649,93.335 228.203,87.773 C223.794,80.658 217.85,82.205 217.85,82.205 C217.85,82.205 215.55,78.905 211.236,78.905 C190.051,79.421 181.269,96.234 181.041,108.145 C180.968,111.904 182.163,118.36 182.203,115.916" id="Fill-80" fill="#A55E36"></path>
                <path d="M390.51,60.58 L242.635,60.58 C236.035,60.58 230.635,55.181 230.635,48.58 L230.635,14.514 C230.635,7.914 236.035,2.514 242.635,2.514 L390.51,2.514 C397.111,2.514 402.51,7.914 402.51,14.514 L402.51,48.58 C402.51,55.181 397.111,60.58 390.51,60.58" id="Fill-81" fill="#C6C9CA"></path>
                <path d="M390.51,58.481 L242.635,58.481 C236.035,58.481 230.635,53.081 230.635,46.481 L230.635,12.414 C230.635,5.814 236.035,0.414 242.635,0.414 L390.51,0.414 C397.111,0.414 402.51,5.814 402.51,12.414 L402.51,46.481 C402.51,53.081 397.111,58.481 390.51,58.481" id="Fill-82" fill="#F1F1EF"></path>
                <g id="Group-99" transform="translate(241.000000, 5.000000)">
                    <mask id="mask-2" fill="white">
                        <use xlink:href="#path-1"></use>
                    </mask>
                    <g id="Clip-84"></g>
                    <polyline id="Fill-83" fill="#00ACC5" mask="url(#mask-2)" points="24.524 93.608 5.068 93.608 2.825 37.411 24.524 37.411 24.524 93.608"></polyline>
                    <polyline id="Fill-85" fill="#00ACC5" mask="url(#mask-2)" points="24.524 93.608 44.092 93.608 46.222 37.411 24.524 37.411 24.524 93.608"></polyline>
                    <path d="M24.524,45.497 C19.905,45.497 16.118,41.936 15.758,37.409 L24.524,37.409 L24.524,45.497" id="Fill-86" fill="#E9B581" mask="url(#mask-2)"></path>
                    <path d="M24.524,45.497 C29.143,45.497 32.93,41.936 33.29,37.409 L24.524,37.409 L24.524,45.497" id="Fill-87" fill="#DAAB7B" mask="url(#mask-2)"></path>
                    <path d="M2.851,37.411 C-5.098,37.411 -11.185,46.466 -11.185,57.937 C-11.185,70.454 -3.944,82.568 5.068,82.568 C6.403,82.568 7.7,82.346 8.941,81.927 C8.941,81.927 0.147,78.338 3.773,67.978 C3.773,67.978 -1.836,64.285 3.427,50.711 L2.851,37.411" id="Fill-88" fill="#00ACC5" mask="url(#mask-2)"></path>
                    <path d="M7.384,60.527 C6.807,60.527 6.23,60.527 5.654,60.527 C6.279,61.152 6.904,61.777 7.529,62.402 C7.529,57.593 7.104,48.614 14.038,48.548 C20.954,48.482 20.547,57.668 20.547,62.402 C21.172,61.777 21.797,61.152 22.422,60.527 C21.726,60.527 21.031,60.527 20.335,60.527 C17.922,60.527 17.918,64.277 20.335,64.277 C21.031,64.277 21.726,64.277 22.422,64.277 C23.435,64.277 24.297,63.418 24.297,62.402 C24.297,59.099 24.6,55.617 23.486,52.45 C22.058,48.392 18.589,44.798 14.038,44.798 C9.687,44.798 6.227,48.132 4.747,52.007 C3.481,55.319 3.779,58.925 3.779,62.402 C3.779,63.415 4.637,64.277 5.654,64.277 C6.23,64.277 6.807,64.277 7.384,64.277 C9.798,64.277 9.801,60.527 7.384,60.527" id="Fill-89" fill="#2E312F" mask="url(#mask-2)"></path>
                    <path d="M46.101,37.411 C54.05,37.411 60.137,46.466 60.137,57.937 C60.137,70.454 52.896,82.568 43.884,82.568 C42.55,82.568 41.254,82.346 40.011,81.927 C40.011,81.927 48.805,78.338 45.179,67.978 C45.179,67.978 50.789,64.285 45.525,50.711 L46.101,37.411" id="Fill-90" fill="#00ACC5" mask="url(#mask-2)"></path>
                    <path d="M15.873,46.673 C15.873,44.31 15.465,41.454 16.505,39.279 C18.356,35.406 22.302,35.885 25.84,35.885 C29.812,35.885 33.177,37.418 33.499,41.937 C33.653,44.118 33.499,46.361 33.499,48.549 C33.499,50.962 37.249,50.966 37.249,48.549 C37.249,45.104 37.839,41.013 36.362,37.796 C34.376,33.469 30.265,32.135 25.84,32.135 C21.693,32.135 17.621,31.982 14.584,35.365 C11.714,38.562 12.123,42.7 12.123,46.673 C12.123,49.086 15.873,49.09 15.873,46.673" id="Fill-91" fill="#2E312F" mask="url(#mask-2)"></path>
                    <path d="M36.284,52.416 C34.863,52.92 33.303,52.176 32.8,50.755 C32.298,49.333 33.042,47.773 34.463,47.271 C35.883,46.768 37.443,47.512 37.946,48.933 C38.449,50.354 37.705,51.913 36.284,52.416" id="Fill-92" fill="#2E312F" mask="url(#mask-2)"></path>
                    <path d="M36.089,51.865 C34.972,52.261 33.747,51.676 33.351,50.56 C32.957,49.442 33.541,48.217 34.658,47.822 C35.774,47.427 37,48.012 37.395,49.128 C37.79,50.244 37.206,51.47 36.089,51.865" id="Fill-93" fill="#00ACC5" mask="url(#mask-2)"></path>
                    <polygon id="Fill-94" fill="#E9B581" mask="url(#mask-2)" points="18.637 37.411 24.524 37.411 24.524 32.098 18.637 32.098"></polygon>
                    <polygon id="Fill-95" fill="#DAAB7B" mask="url(#mask-2)" points="24.524 37.411 30.411 37.411 30.411 32.098 24.524 32.098"></polygon>
                    <path d="M24.633,34.813 C19.437,34.813 15.224,30.601 15.224,25.404 L15.224,11.94 L24.633,11.94 L24.633,34.813" id="Fill-96" fill="#EDBB84" mask="url(#mask-2)"></path>
                    <path d="M24.633,34.813 C29.83,34.813 34.043,30.601 34.043,25.404 L34.043,11.94 L24.633,11.94 L24.633,34.813" id="Fill-97" fill="#E4B17F" mask="url(#mask-2)"></path>
                    <path d="M18.727,14.755 C18.727,14.755 20.651,11.201 24.046,12.84 C27.439,14.479 28.74,19.911 33.661,19.147 C38.582,18.384 39.26,12.272 37.734,7.116 C37.734,7.116 38.073,11.317 34.849,9.79 C31.625,8.262 25.493,2.439 20.595,5.589 C17.032,7.88 18.727,10.936 18.727,10.936 C18.727,10.936 15.251,9.217 13.977,12.161 C12.422,15.762 15.216,19.499 15.216,19.499 C15.216,19.499 15.84,14.373 18.727,14.755" id="Fill-98" fill="#4D4239" mask="url(#mask-2)"></path>
                </g>
                <path d="M288.99,29.447 L287.99,29.447 C287.989,35.667 285.472,41.29 281.396,45.367 C277.318,49.443 271.696,51.96 265.476,51.961 C259.256,51.96 253.634,49.443 249.557,45.367 C245.481,41.29 242.963,35.667 242.963,29.447 C242.963,23.228 245.481,17.606 249.557,13.529 C253.634,9.453 259.256,6.935 265.476,6.935 C271.696,6.935 277.318,9.453 281.396,13.529 C285.472,17.606 287.989,23.228 287.99,29.447 L289.99,29.447 C289.989,15.909 279.015,4.935 265.476,4.935 C251.937,4.935 240.963,15.909 240.963,29.447 C240.963,42.986 251.937,53.96 265.476,53.961 C279.015,53.96 289.989,42.986 289.99,29.447 L288.99,29.447" id="Fill-100" fill="#2C3E70"></path>
                <polygon id="Fill-101" fill="#AFB3B5" points="325.022 18.688 370.359 18.688 370.359 15.015 325.022 15.015"></polygon>
                <path d="M315.523,12.349 C313.04,12.349 311.019,14.368 311.019,16.852 C311.019,19.335 313.04,21.355 315.523,21.355 C318.007,21.355 320.027,19.335 320.027,16.852 C320.027,14.368 318.007,12.349 315.523,12.349 Z M315.523,22.405 C312.462,22.405 309.969,19.914 309.969,16.852 C309.969,13.79 312.462,11.299 315.523,11.299 C318.586,11.299 321.077,13.79 321.077,16.852 C321.077,19.914 318.586,22.405 315.523,22.405 Z" id="Fill-102" fill="#AFB3B5"></path>
                <polygon id="Fill-103" fill="#AFB3B5" points="325.022 31.285 370.359 31.285 370.359 27.611 325.022 27.611"></polygon>
                <path d="M315.523,24.944 C313.04,24.944 311.019,26.965 311.019,29.447 C311.019,31.931 313.04,33.951 315.523,33.951 C318.007,33.951 320.027,31.931 320.027,29.447 C320.027,26.965 318.007,24.944 315.523,24.944 Z M315.523,35.001 C312.462,35.001 309.969,32.51 309.969,29.447 C309.969,26.386 312.462,23.895 315.523,23.895 C318.586,23.895 321.077,26.386 321.077,29.447 C321.077,32.51 318.586,35.001 315.523,35.001 Z" id="Fill-104" fill="#AFB3B5"></path>
                <polygon id="Fill-105" fill="#AFB3B5" points="325.022 43.881 370.359 43.881 370.359 40.207 325.022 40.207"></polygon>
                <path d="M315.523,37.54 C313.04,37.54 311.019,39.561 311.019,42.044 C311.019,44.527 313.04,46.547 315.523,46.547 C318.007,46.547 320.027,44.527 320.027,42.044 C320.027,39.561 318.007,37.54 315.523,37.54 Z M315.523,47.597 C312.462,47.597 309.969,45.105 309.969,42.044 C309.969,38.981 312.462,36.49 315.523,36.49 C318.586,36.49 321.077,38.981 321.077,42.044 C321.077,45.105 318.586,47.597 315.523,47.597 Z" id="Fill-106" fill="#AFB3B5"></path>
                <path d="M318.81,12.078 C317.586,13.68 316.362,15.28 315.137,16.881 C314.453,16.378 313.767,15.875 313.083,15.373 C311.72,14.372 310.41,16.648 311.758,17.639 C312.75,18.366 313.741,19.094 314.732,19.822 C315.352,20.277 316.134,19.864 316.527,19.352 C318.044,17.368 319.559,15.386 321.076,13.403 C322.101,12.062 319.823,10.754 318.81,12.078" id="Fill-107" fill="#00ACC5"></path>
                <path d="M315.143,28.624 C315.041,28.757 314.941,28.889 314.839,29.021 L315.137,29.249 L315.36,28.947 C315.225,28.848 315.09,28.749 314.956,28.651 C314.788,28.528 314.554,28.565 314.431,28.732 C314.309,28.899 314.345,29.133 314.513,29.256 C314.647,29.354 314.782,29.453 314.915,29.551 L315.211,29.77 L315.435,29.477 C315.537,29.344 315.638,29.212 315.739,29.079 C315.865,28.915 315.833,28.679 315.669,28.554 C315.504,28.428 315.269,28.459 315.143,28.624" id="Fill-108" fill="#00A89E"></path>
                <path d="M314.151,28.06 C313.883,27.864 313.615,27.666 313.347,27.469 C313.18,27.346 312.945,27.382 312.822,27.549 C312.7,27.716 312.736,27.951 312.903,28.073 C313.171,28.27 313.439,28.468 313.708,28.665 C313.875,28.787 314.109,28.751 314.232,28.584 C314.354,28.417 314.318,28.182 314.151,28.06 Z M312.118,27.145 C311.673,27.239 311.324,27.537 311.1,27.903 C310.993,28.08 311.049,28.311 311.226,28.419 C311.402,28.527 311.633,28.47 311.741,28.294 C311.878,28.067 312.077,27.918 312.271,27.879 C312.473,27.837 312.604,27.638 312.561,27.436 C312.519,27.233 312.32,27.103 312.118,27.145 Z M310.827,29.094 C310.868,29.49 311.053,29.894 311.402,30.2 C311.558,30.337 311.795,30.322 311.932,30.167 C312.069,30.012 312.054,29.775 311.899,29.638 C311.693,29.454 311.599,29.244 311.573,29.015 C311.551,28.809 311.366,28.66 311.16,28.682 C310.954,28.704 310.805,28.888 310.827,29.094 Z M312.229,30.817 C312.498,31.014 312.766,31.211 313.034,31.408 C313.201,31.531 313.436,31.495 313.558,31.328 C313.681,31.161 313.645,30.926 313.478,30.804 C313.21,30.607 312.941,30.41 312.673,30.213 C312.506,30.09 312.272,30.126 312.149,30.293 C312.026,30.46 312.062,30.695 312.229,30.817 Z M313.839,31.999 C314.063,32.163 314.286,32.328 314.51,32.492 L314.701,32.61 C314.885,32.705 315.111,32.633 315.206,32.449 C315.301,32.265 315.229,32.038 315.044,31.943 L314.954,31.887 C314.73,31.723 314.506,31.559 314.283,31.394 C314.116,31.272 313.881,31.308 313.758,31.475 C313.636,31.642 313.672,31.876 313.839,31.999 Z M315.989,32.612 C316.329,32.459 316.615,32.219 316.825,31.947 L316.89,31.862 C317.015,31.697 316.984,31.462 316.82,31.336 C316.655,31.21 316.42,31.242 316.294,31.406 L316.229,31.491 C316.096,31.666 315.892,31.836 315.684,31.927 C315.495,32.011 315.41,32.233 315.494,32.422 C315.578,32.611 315.8,32.696 315.989,32.612 Z M317.496,31.069 C317.698,30.805 317.901,30.54 318.103,30.276 C318.229,30.111 318.197,29.876 318.033,29.75 C317.868,29.624 317.633,29.656 317.507,29.82 C317.305,30.085 317.103,30.349 316.901,30.613 C316.775,30.778 316.806,31.013 316.971,31.139 C317.135,31.265 317.37,31.233 317.496,31.069 Z M318.709,29.483 C318.911,29.218 319.114,28.954 319.316,28.69 C319.442,28.525 319.41,28.29 319.246,28.164 C319.081,28.038 318.846,28.07 318.72,28.234 C318.518,28.498 318.316,28.763 318.114,29.027 C317.988,29.192 318.019,29.427 318.184,29.553 C318.348,29.679 318.583,29.647 318.709,29.483 Z M319.922,27.897 C320.124,27.632 320.326,27.368 320.529,27.104 C320.654,26.939 320.623,26.704 320.458,26.578 C320.294,26.452 320.059,26.483 319.933,26.648 C319.731,26.912 319.529,27.177 319.326,27.441 C319.201,27.606 319.232,27.841 319.397,27.967 C319.561,28.092 319.796,28.061 319.922,27.897 Z M321.135,26.31 C321.215,26.206 321.294,26.102 321.374,25.998 C321.547,25.772 321.656,25.528 321.694,25.283 C321.726,25.079 321.586,24.887 321.382,24.854 C321.177,24.822 320.985,24.962 320.953,25.167 C320.936,25.275 320.887,25.4 320.778,25.543 C320.698,25.647 320.619,25.751 320.539,25.855 C320.413,26.019 320.445,26.255 320.609,26.381 C320.774,26.506 321.009,26.475 321.135,26.31 Z M321.255,24.056 C320.962,23.772 320.572,23.587 320.152,23.534 C319.947,23.508 319.759,23.654 319.733,23.86 C319.708,24.065 319.854,24.253 320.059,24.278 C320.317,24.309 320.568,24.432 320.732,24.593 C320.88,24.737 321.118,24.734 321.262,24.586 C321.407,24.437 321.404,24.2 321.255,24.056 Z M318.944,23.81 C318.785,23.916 318.639,24.053 318.512,24.219 C318.406,24.357 318.3,24.496 318.194,24.635 C318.068,24.799 318.099,25.034 318.264,25.16 C318.428,25.286 318.664,25.255 318.789,25.09 C318.896,24.952 319.002,24.813 319.108,24.674 C319.187,24.571 319.272,24.493 319.361,24.433 C319.533,24.318 319.579,24.085 319.464,23.913 C319.349,23.741 319.116,23.695 318.944,23.81 Z M317.587,25.428 C317.385,25.692 317.183,25.956 316.981,26.221 C316.855,26.385 316.886,26.621 317.051,26.747 C317.215,26.872 317.451,26.841 317.577,26.676 C317.779,26.412 317.981,26.148 318.183,25.883 C318.309,25.719 318.277,25.483 318.113,25.358 C317.948,25.232 317.713,25.263 317.587,25.428 Z M316.374,27.014 C316.172,27.278 315.97,27.543 315.768,27.807 C315.642,27.972 315.674,28.207 315.838,28.333 C316.003,28.459 316.238,28.427 316.364,28.263 C316.566,27.998 316.768,27.734 316.97,27.47 C317.096,27.305 317.065,27.07 316.9,26.944 C316.736,26.818 316.5,26.85 316.374,27.014 Z" id="Fill-109" fill="#00A89E"></path>
                <path d="M318.81,37.241 C317.586,38.842 316.362,40.442 315.137,42.044 C314.453,41.541 313.767,41.038 313.083,40.535 C311.72,39.535 310.41,41.811 311.758,42.801 C312.75,43.528 313.741,44.257 314.732,44.984 C315.352,45.439 316.134,45.027 316.527,44.514 C318.044,42.531 319.559,40.548 321.076,38.565 C322.101,37.225 319.823,35.916 318.81,37.241" id="Fill-110" fill="#00ACC5"></path>
                <path d="M160.584,84.055 L12.709,84.055 C6.109,84.055 0.709,78.654 0.709,72.055 L0.709,37.988 C0.709,31.388 6.109,25.988 12.709,25.988 L160.584,25.988 C167.184,25.988 172.584,31.388 172.584,37.988 L172.584,72.055 C172.584,78.654 167.184,84.055 160.584,84.055" id="Fill-111" fill="#C6C9CA"></path>
                <path d="M160.584,81.955 L12.709,81.955 C6.109,81.955 0.709,76.556 0.709,69.955 L0.709,35.889 C0.709,29.289 6.109,23.889 12.709,23.889 L160.584,23.889 C167.184,23.889 172.584,29.289 172.584,35.889 L172.584,69.955 C172.584,76.556 167.184,81.955 160.584,81.955" id="Fill-112" fill="#F1F1EF"></path>
                <g id="Group-127" transform="translate(12.000000, 29.000000)">
                    <mask id="mask-4" fill="white">
                        <use xlink:href="#path-3"></use>
                    </mask>
                    <g id="Clip-114"></g>
                    <polyline id="Fill-113" fill="#00ACC5" mask="url(#mask-4)" points="23.599 98.184 3.318 98.184 0.979 39.6 23.599 39.6 23.599 98.184"></polyline>
                    <polyline id="Fill-115" fill="#00ACC5" mask="url(#mask-4)" points="23.599 98.184 43.998 98.184 46.219 39.6 23.599 39.6 23.599 98.184"></polyline>
                    <path d="M23.599,48.028 C18.784,48.028 14.836,44.315 14.462,39.597 L23.599,39.597 L23.599,48.028" id="Fill-116" fill="#8D7360" mask="url(#mask-4)"></path>
                    <path d="M23.599,48.028 C28.415,48.028 32.362,44.315 32.737,39.597 L23.599,39.597 L23.599,48.028" id="Fill-117" fill="#8D6E5C" mask="url(#mask-4)"></path>
                    <path d="M1.007,39.6 C-7.28,39.6 -13.625,49.039 -13.625,60.997 C-13.625,74.045 -6.077,86.675 3.318,86.675 C4.709,86.675 6.061,86.442 7.355,86.005 C7.355,86.005 -1.813,82.265 1.967,71.464 C1.967,71.464 -3.88,67.614 1.608,53.464 L1.007,39.6" id="Fill-118" fill="#00ACC5" mask="url(#mask-4)"></path>
                    <path d="M5.732,63.776 C5.131,63.776 4.529,63.776 3.928,63.776 C4.553,64.401 5.178,65.026 5.803,65.651 C5.803,60.587 5.381,51.199 12.668,51.13 C19.937,51.061 19.533,60.667 19.533,65.651 C20.158,65.026 20.783,64.401 21.408,63.776 C20.683,63.776 19.958,63.776 19.233,63.776 C16.82,63.776 16.816,67.526 19.233,67.526 C19.958,67.526 20.683,67.526 21.408,67.526 C22.422,67.526 23.283,66.667 23.283,65.651 C23.283,62.215 23.601,58.592 22.441,55.299 C20.963,51.102 17.376,47.38 12.668,47.38 C8.169,47.38 4.592,50.83 3.059,54.836 C1.741,58.281 2.053,62.034 2.053,65.651 C2.053,66.665 2.912,67.526 3.928,67.526 C4.529,67.526 5.131,67.526 5.732,67.526 C8.145,67.526 8.149,63.776 5.732,63.776" id="Fill-119" fill="#2E312F" mask="url(#mask-4)"></path>
                    <path d="M46.093,39.6 C54.38,39.6 60.725,49.039 60.725,60.997 C60.725,74.045 53.177,86.675 43.782,86.675 C42.391,86.675 41.039,86.442 39.745,86.005 C39.745,86.005 48.912,82.265 45.132,71.464 C45.132,71.464 50.98,67.614 45.492,53.464 L46.093,39.6" id="Fill-120" fill="#00ACC5" mask="url(#mask-4)"></path>
                    <path d="M14.501,49.255 C14.501,46.777 14.078,43.796 15.166,41.517 C17.113,37.437 21.248,37.929 24.97,37.929 C29.156,37.929 32.699,39.563 33.034,44.318 C33.195,46.591 33.034,48.93 33.034,51.21 C33.034,53.623 36.784,53.627 36.784,51.21 C36.784,47.631 37.403,43.373 35.867,40.031 C33.809,35.551 29.552,34.179 24.97,34.179 C20.671,34.179 16.443,34.012 13.294,37.522 C10.32,40.838 10.751,45.136 10.751,49.255 C10.751,51.667 14.501,51.672 14.501,49.255" id="Fill-121" fill="#2E312F" mask="url(#mask-4)"></path>
                    <polygon id="Fill-122" fill="#8D7360" mask="url(#mask-4)" points="17.463 39.6 23.599 39.6 23.599 34.061 17.463 34.061"></polygon>
                    <polygon id="Fill-123" fill="#8D6E5C" mask="url(#mask-4)" points="23.599 39.6 29.736 39.6 29.736 34.061 23.599 34.061"></polygon>
                    <path d="M23.573,36.303 C17.899,36.303 13.299,31.702 13.299,26.028 L13.299,11.326 L23.573,11.326 L23.573,36.303" id="Fill-124" fill="#927663" mask="url(#mask-4)"></path>
                    <path d="M23.573,36.303 C29.248,36.303 33.848,31.702 33.848,26.028 L33.848,11.326 L23.573,11.326 L23.573,36.303" id="Fill-125" fill="#91715E" mask="url(#mask-4)"></path>
                    <path d="M39.44,17.159 C39.44,15.611 38.357,14.285 36.818,13.73 C36.897,13.428 36.944,13.113 36.944,12.788 C36.944,11.135 35.855,9.715 34.298,9.09 L34.299,9.08 C34.299,7.031 32.404,5.371 30.067,5.371 C29.63,5.371 29.208,5.43 28.811,5.537 C28.077,4.437 26.718,3.695 25.159,3.695 C23.486,3.695 22.045,4.549 21.358,5.783 C20.651,5.318 19.776,5.04 18.824,5.04 C16.487,5.04 14.593,6.7 14.593,8.748 L14.593,8.76 C12.286,8.873 10.45,10.597 10.414,12.726 C8.858,13.273 7.758,14.605 7.758,16.165 C7.758,17.684 8.8,18.986 10.291,19.561 C10.144,19.931 10.061,20.333 10.061,20.756 C10.061,22.545 11.51,23.994 13.299,23.994 C15.088,23.994 16.538,22.545 16.538,20.756 L16.532,20.652 C17.937,20.219 19.022,19.159 19.394,17.835 C20.876,17.197 21.917,15.732 21.939,14.021 C22.614,14.545 23.46,14.859 24.381,14.859 C24.763,14.859 25.132,14.803 25.482,14.702 C25.731,16.114 26.68,17.283 27.961,17.835 C28.333,19.159 29.418,20.219 30.822,20.652 L30.817,20.756 C30.817,22.545 32.267,23.994 34.055,23.994 C35.844,23.994 37.294,22.545 37.294,20.756 C37.294,20.634 37.286,20.514 37.273,20.396 C38.566,19.761 39.44,18.551 39.44,17.159" id="Fill-126" fill="#1A1919" mask="url(#mask-4)"></path>
                </g>
                <path d="M59.064,52.922 L58.064,52.922 C58.063,59.142 55.545,64.764 51.47,68.841 C47.392,72.917 41.77,75.435 35.55,75.436 C29.33,75.435 23.708,72.917 19.63,68.841 C15.555,64.764 13.037,59.142 13.036,52.922 C13.037,46.702 15.555,41.08 19.63,37.002 C23.708,32.927 29.33,30.409 35.55,30.408 C41.77,30.409 47.392,32.927 51.47,37.002 C55.545,41.08 58.063,46.702 58.064,52.922 L60.064,52.922 C60.063,39.383 49.089,28.409 35.55,28.408 C22.011,28.409 11.037,39.383 11.036,52.922 C11.037,66.461 22.011,77.435 35.55,77.436 C49.089,77.435 60.063,66.461 60.064,52.922 L59.064,52.922" id="Fill-128" fill="#2C3E70"></path>
                <path d="M118.929,52.727 L104.508,52.727 C102.175,52.727 100.277,50.828 100.277,48.495 L100.277,39.585 L109.017,45.224 C109.838,45.753 110.778,46.019 111.719,46.019 C112.66,46.019 113.601,45.753 114.421,45.224 L123.161,39.585 L123.161,48.495 C123.161,50.828 121.262,52.727 118.929,52.727 Z M120.647,38.708 L113.283,43.46 C112.332,44.072 111.106,44.072 110.155,43.46 L102.791,38.708 L120.647,38.708 Z M98.178,36.609 L98.178,48.495 C98.178,51.986 101.018,54.826 104.508,54.826 L118.929,54.826 C122.42,54.826 125.26,51.986 125.26,48.495 L125.26,36.609 L98.178,36.609 Z" id="Fill-129" fill="#AFB3B5"></path>
                <polygon id="Fill-130" fill="#AFB3B5" points="84.437 66.091 139.001 66.091 139.001 62.417 84.437 62.417"></polygon>
                <path d="M25.267,325.292 C55.514,324.258 85.761,323.717 116.008,323.349 C131.132,323.118 146.256,323.067 161.379,322.932 L206.75,322.794 L252.12,322.925 C267.244,323.064 282.367,323.108 297.491,323.341 C327.738,323.707 357.985,324.251 388.232,325.292 C357.985,326.333 327.738,326.877 297.491,327.243 C282.367,327.476 267.244,327.52 252.12,327.659 L206.75,327.791 L161.379,327.652 C146.256,327.517 131.132,327.466 116.008,327.235 C85.761,326.868 55.514,326.326 25.267,325.292" id="Fill-131" fill="#E0E2E2"></path>
            </g>
        </g>
    </g>
</svg>