<?xml version="1.0" encoding="UTF-8"?>
<svg width="405px" height="326px" viewBox="0 0 405 326" version="1.1" xmlns="http://www.w3.org/2000/svg" xmlns:xlink="http://www.w3.org/1999/xlink">
    <!-- Generator: Sketch 52.4 (67378) - http://www.bohemiancoding.com/sketch -->
    <title>Group 18</title>
    <desc>Created with Sketch.</desc>
    <g id="Page-1" stroke="none" stroke-width="1" fill="none" fill-rule="evenodd">
        <g id="Feed-Forward-_-Website-Mock-Up-(Final)" transform="translate(-82.000000, -147.000000)">
            <g id="Group-18" transform="translate(82.000000, 147.000000)">
                <g id="Group" transform="translate(25.000000, 93.000000)">
                    <polygon id="Path" fill="#30E3D1" points="63.5 161.6 28.9 161.6 24.9 61.8 63.5 61.8"></polygon>
                    <polygon id="Path" fill="#30CFC8" points="63.5 161.6 98.2 161.6 102 61.8 63.5 61.8"></polygon>
                    <path d="M63.5,76.2 C55.3,76.2 48.6,69.9 47.9,61.8 L63.5,61.8 L63.5,76.2 Z" id="Path" fill="#8E644C"></path>
                    <path d="M63.5,76.2 C71.7,76.2 78.4,69.9 79.1,61.8 L63.5,61.8 L63.5,76.2 Z" id="Path" fill="#8E5E47"></path>
                    <path d="M25,61.8 C10.9,61.8 0.1,77.9 0.1,98.2 C0.1,120.4 13,141.9 28.9,141.9 C31.3,141.9 33.6,141.5 35.8,140.8 C35.8,140.8 20.2,134.4 26.6,116 C26.6,116 16.6,109.4 26,85.4 L25,61.8 Z" id="Path" fill="#30E3D1"></path>
                    <path d="M33,104.3 C32,104.3 31,104.3 29.9,104.3 C30.5,104.9 31.1,105.5 31.8,106.2 C31.8,96.8 31.5,80.2 44.8,80.2 C58.1,80.2 57.8,96.9 57.8,106.2 C58.4,105.6 59,105 59.7,104.3 C58.5,104.3 57.2,104.3 56,104.3 C53.6,104.3 53.6,108.1 56,108.1 C57.2,108.1 58.5,108.1 59.7,108.1 C60.7,108.1 61.6,107.2 61.6,106.2 C61.6,100.6 62.2,94.7 60.4,89.3 C58.1,82.5 52.4,76.4 44.9,76.4 C37.6,76.4 32,82.2 29.6,88.6 C27.6,94.2 28.1,100.3 28.1,106.2 C28.1,107.2 29,108.1 30,108.1 C31,108.1 32,108.1 33.1,108.1 C35.5,108 35.5,104.3 33,104.3 Z" id="Path" fill="#221F1F"></path>
                    <path d="M101.8,61.8 C115.9,61.8 126.7,77.9 126.7,98.2 C126.7,120.4 113.8,141.9 97.9,141.9 C95.5,141.9 93.2,141.5 91,140.8 C91,140.8 106.6,134.4 100.2,116 C100.2,116 110.2,109.4 100.8,85.4 L101.8,61.8 Z" id="Path" fill="#30CFC8"></path>
                    <path d="M46.7,78.3 C46.7,73.4 45.9,67.6 48.6,63.3 C52.5,56.9 59.7,57.7 66.2,57.7 C73.9,57.7 80.6,61.1 81,69.7 C81.2,73.7 81,77.7 81,81.6 C81,84 84.8,84 84.8,81.6 C84.8,76 85.8,69.3 83.8,64 C80.9,56.4 73.8,53.9 66.3,53.9 C59.1,53.9 52.1,53.4 46.9,59.4 C42.3,64.8 43.1,71.7 43.1,78.2 C42.9,80.7 46.7,80.7 46.7,78.3 Z" id="Path" fill="#221F1F"></path>
                    <circle id="Oval" fill="#221F1F" transform="translate(82.730110, 83.911370) rotate(-19.498511) translate(-82.730110, -83.911370) " cx="82.73011" cy="83.91137" r="4.80025375"></circle>
                    <circle id="Oval" fill="#30CFC8" transform="translate(82.730110, 83.911370) rotate(-19.498511) translate(-82.730110, -83.911370) " cx="82.73011" cy="83.91137" r="3.80020088"></circle>
                    <rect id="Rectangle" fill="#8E644C" x="53" y="52.4" width="10.4" height="9.4"></rect>
                    <rect id="Rectangle" fill="#8E5E47" transform="translate(68.669300, 57.101800) rotate(-180.000000) translate(-68.669300, -57.101800) " x="63.4693" y="52.4018" width="10.4" height="9.4"></rect>
                    <path d="M63.4,56.2 C53.7,56.2 45.9,48.4 45.9,38.7 L45.9,13.7 L63.4,13.7 L63.4,56.2 Z" id="Path" fill="#93674F"></path>
                    <path d="M63.4,56.2 C73.1,56.2 80.9,48.4 80.9,38.7 L80.9,13.7 L63.4,13.7 L63.4,56.2 Z" id="Path" fill="#936149"></path>
                    <path d="M90.4,23.6 C90.4,21 88.6,18.7 85.9,17.8 C86,17.3 86.1,16.7 86.1,16.2 C86.1,13.4 84.2,11 81.6,9.9 C81.6,9.9 81.6,9.9 81.6,9.9 C81.6,6.4 78.4,3.6 74.4,3.6 C73.7,3.6 72.9,3.7 72.3,3.9 C71.1,2 68.7,0.8 66.1,0.8 C63.3,0.8 60.8,2.3 59.6,4.4 C58.4,3.6 56.9,3.1 55.3,3.1 C51.3,3.1 48.1,5.9 48.1,9.4 C48.1,9.4 48.1,9.4 48.1,9.4 C44.2,9.6 41,12.5 41,16.2 C38.4,17.1 36.5,19.4 36.5,22.1 C36.5,24.7 38.3,26.9 40.8,27.9 C40.5,28.5 40.4,29.2 40.4,29.9 C40.4,32.9 42.9,35.4 45.9,35.4 C48.9,35.4 51.4,32.9 51.4,29.9 C51.4,29.8 51.4,29.8 51.4,29.7 C53.8,29 55.6,27.2 56.3,24.9 C58.8,23.8 60.6,21.3 60.6,18.4 C61.8,19.3 63.2,19.8 64.8,19.8 C65.5,19.8 66.1,19.7 66.7,19.5 C67.1,21.9 68.7,23.9 70.9,24.8 C71.5,27.1 73.4,28.9 75.8,29.6 C75.8,29.7 75.8,29.7 75.8,29.8 C75.8,32.8 78.3,35.3 81.3,35.3 C84.3,35.3 86.8,32.8 86.8,29.8 C86.8,29.6 86.8,29.4 86.8,29.2 C88.9,28 90.4,26 90.4,23.6 Z" id="Path" fill="#000000"></path>
                    <path d="M72.2,147.8 L63.4,147.8 L63.4,177.6 C67,177.6 70.5,177.4 73.7,176.9 L76.6,232.4 L98,232.4 L98,168.2 L98,147.8 L72.2,147.8 Z" id="Path" fill="#30CFC8"></path>
                    <path d="M63.5,147.8 L54.7,147.8 L29,147.8 L29,168.2 L29,232.4 L50.2,232.4 L53.1,176.9 C56.4,177.3 59.8,177.6 63.4,177.6 L63.4,147.8 L63.5,147.8 Z" id="Path" fill="#30E3D1"></path>
                    <path d="M23.3,111.1 C23.3,111.1 6.3,110.1 9.3,129.5 C9.3,129.5 21.7,147.6 35.9,140.8 L26.7,116 C26.6,116.1 24.3,115.3 23.3,111.1 Z" id="Path" fill="#F2F2F2"></path>
                    <path d="M41,110.4 C42.7,109.9 44.5,110.8 45,112.5 C45.5,114.2 44.6,116 42.9,116.5 L40.7,117.2 C41,117.5 41.2,117.7 41.5,118 L43.2,117.5 C44.9,117 46.7,117.9 47.2,119.6 C47.7,121.3 46.8,123.1 45.1,123.6 L44.7,123.7 C44.7,123.8 44.8,124 44.8,124.1 C44.8,124.2 44.9,124.4 44.9,124.5 L45.3,124.4 C47,123.9 48.8,124.8 49.3,126.5 C49.8,128.2 48.9,130 47.2,130.5 L45.5,131.1 C45.5,131.5 45.4,131.8 45.4,132.2 L45.8,132.1 C47.5,131.6 49.3,132.5 49.8,134.2 C50.3,135.9 49.4,137.7 47.7,138.2 L38.8,141.1 C38.8,141.1 38.8,141.1 38.7,141.1 C38.7,141.1 38.6,141.1 38.6,141.1 C32.9,143 26.3,138.4 23.9,131 C21.5,123.5 24.2,116 29.9,114.1 C30.3,114 30.7,113.9 31.1,113.8 C31.3,113.7 31.6,113.5 31.8,113.4 L41,110.4 Z" id="Path" fill="#93674F"></path>
                    <path d="M103.5,111.1 C103.5,111.1 120.5,110.1 117.5,129.5 C117.5,129.5 105.1,147.6 90.9,140.8 L100.1,116 C100.1,116.1 102.5,115.3 103.5,111.1 Z" id="Path" fill="#E5E5E5"></path>
                    <rect id="Rectangle" fill="#2F9481" x="27.8" y="147.8" width="35.9" height="4.2"></rect>
                    <rect id="Rectangle" fill="#2F9481" x="63.5" y="147.8" width="35.9" height="4.2"></rect>
                    <path d="M86.7,105.1 L76.6,105.1 L66.5,105.1 C63.7,105.1 61.6,107.6 62,110.3 L66.1,135.7 C66.5,137.9 68.3,139.5 70.6,139.5 L76.7,139.5 L76.7,131.8 L76.7,139.5 L82.8,139.5 C85,139.5 86.9,137.9 87.3,135.7 L91.4,110.3 C91.6,107.6 89.5,105.1 86.7,105.1 Z" id="Path" fill="#46454A"></path>
                    <path d="M85.8,110.4 C84.1,109.9 82.3,110.8 81.8,112.5 C81.3,114.2 82.2,116 83.9,116.5 L86.1,117.2 C85.8,117.5 85.6,117.7 85.3,118 L83.6,117.5 C81.9,117 80.1,117.9 79.6,119.6 C79.1,121.3 80,123.1 81.7,123.6 L82.1,123.7 C82.1,123.8 82,124 82,124.1 C82,124.2 81.9,124.4 81.9,124.5 L81.5,124.4 C79.8,123.9 78,124.8 77.5,126.5 C77,128.2 77.9,130 79.6,130.5 L81.3,131.1 C81.3,131.5 81.4,131.8 81.4,132.2 L81,132.1 C79.3,131.6 77.5,132.5 77,134.2 C76.5,135.9 77.4,137.7 79.1,138.2 L88,141.1 C88,141.1 88,141.1 88.1,141.1 C88.1,141.1 88.2,141.1 88.2,141.1 C93.9,143 100.5,138.4 102.9,131 C105.3,123.5 102.6,116 96.9,114.1 C96.5,114 96.1,113.9 95.7,113.8 C95.5,113.7 95.2,113.5 95,113.4 L85.8,110.4 Z" id="Path" fill="#93674F"></path>
                    <path d="M70.2,112.7 L67.8,112.7 C67.2,112.7 66.7,112.2 66.7,111.6 L66.7,111.3 C66.7,110.7 67.2,110.2 67.8,110.2 L70.2,110.2 C70.8,110.2 71.3,110.7 71.3,111.3 L71.3,111.6 C71.3,112.2 70.8,112.7 70.2,112.7 Z" id="Path" fill="#FFFFFF"></path>
                </g>
                <g id="Group" transform="translate(263.000000, 96.000000)">
                    <polygon id="Path" fill="#30E3D1" points="64.1 158.6 29.6 158.6 25.6 58.8 64.1 58.8"></polygon>
                    <polygon id="Path" fill="#30CFC8" points="64.1 158.6 98.9 158.6 102.6 58.8 64.1 58.8"></polygon>
                    <path d="M64.1,73.2 C55.9,73.2 49.2,66.9 48.5,58.8 L64.1,58.8 L64.1,73.2 Z" id="Path" fill="#F3B16B"></path>
                    <path d="M64.1,73.2 C72.3,73.2 79,66.9 79.7,58.8 L64.1,58.8 L64.1,73.2 Z" id="Path" fill="#E4A665"></path>
                    <path d="M25.7,58.8 C11.6,58.8 0.8,74.9 0.8,95.2 C0.8,117.4 13.7,138.9 29.6,138.9 C32,138.9 34.3,138.5 36.5,137.8 C36.5,137.8 20.9,131.4 27.3,113 C27.3,113 17.3,106.4 26.7,82.4 L25.7,58.8 Z" id="Path" fill="#30E3D1"></path>
                    <path d="M33.7,101.3 C32.7,101.3 31.7,101.3 30.6,101.3 C31.2,101.9 31.8,102.5 32.5,103.2 C32.5,93.8 32.2,77.2 45.5,77.2 C58.8,77.2 58.5,93.9 58.5,103.2 C59.1,102.6 59.7,102 60.4,101.3 C59.2,101.3 57.9,101.3 56.7,101.3 C54.3,101.3 54.3,105.1 56.7,105.1 C57.9,105.1 59.2,105.1 60.4,105.1 C61.4,105.1 62.3,104.2 62.3,103.2 C62.3,97.6 62.9,91.7 61.1,86.3 C58.8,79.5 53.1,73.4 45.6,73.4 C38.3,73.4 32.7,79.2 30.3,85.6 C28.3,91.2 28.8,97.3 28.8,103.2 C28.8,104.2 29.7,105.1 30.7,105.1 C31.7,105.1 32.7,105.1 33.8,105.1 C36.1,105 36.1,101.3 33.7,101.3 Z" id="Path" fill="#221F1F"></path>
                    <path d="M102.4,58.8 C116.5,58.8 127.3,74.9 127.3,95.2 C127.3,117.4 114.4,138.9 98.5,138.9 C96.1,138.9 93.8,138.5 91.6,137.8 C91.6,137.8 107.2,131.4 100.8,113 C100.8,113 110.8,106.4 101.4,82.4 L102.4,58.8 Z" id="Path" fill="#30CFC8"></path>
                    <path d="M47.3,75.3 C47.3,70.4 46.5,64.6 49.2,60.3 C53.1,53.9 60.3,54.7 66.8,54.7 C74.5,54.7 81.2,58.1 81.6,66.7 C81.8,70.7 81.6,74.7 81.6,78.6 C81.6,81 85.4,81 85.4,78.6 C85.4,73 86.4,66.3 84.4,61 C81.5,53.4 74.4,50.9 66.9,50.9 C59.7,50.9 52.7,50.4 47.5,56.4 C42.9,61.8 43.7,68.7 43.7,75.2 C43.6,77.7 47.3,77.7 47.3,75.3 Z" id="Path" fill="#221F1F"></path>
                    <circle id="Oval" fill="#221F1F" transform="translate(83.437800, 80.888510) rotate(-19.498511) translate(-83.437800, -80.888510) " cx="83.4378" cy="80.88851" r="4.80025375"></circle>
                    <circle id="Oval" fill="#30CFC8" transform="translate(83.437800, 80.888510) rotate(-19.498511) translate(-83.437800, -80.888510) " cx="83.4378" cy="80.88851" r="3.80020088"></circle>
                    <rect id="Rectangle" fill="#F3B16B" x="53.7" y="49.4" width="10.4" height="9.4"></rect>
                    <rect id="Rectangle" fill="#E4A665" transform="translate(69.393800, 54.101800) rotate(-180.000000) translate(-69.393800, -54.101800) " x="64.1938" y="49.4018" width="10.4" height="9.4"></rect>
                    <path d="M64.3,54.2 C55.1,54.2 47.6,46.7 47.6,37.5 L47.6,13.6 L64.3,13.6 L64.3,54.2 Z" id="Path" fill="#FDB96F"></path>
                    <path d="M64.3,54.2 C73.5,54.2 81,46.7 81,37.5 L81,13.6 L64.3,13.6 L64.3,54.2 Z" id="Path" fill="#EEAD69"></path>
                    <path d="M72.9,144.8 L64.1,144.8 L64.1,174.6 C67.7,174.6 71.2,174.4 74.4,173.9 L77.3,229.4 L98.5,229.4 L98.5,165.2 L98.5,144.8 L72.9,144.8 Z" id="Path" fill="#30CFC8"></path>
                    <path d="M64.1,144.8 L55.3,144.8 L29.6,144.8 L29.6,165.2 L29.6,229.4 L50.8,229.4 L53.7,173.9 C57,174.3 60.4,174.6 64,174.6 L64,144.8 L64.1,144.8 Z" id="Path" fill="#30E3D1"></path>
                    <path d="M23.9,108.1 C23.9,108.1 6.9,107.1 9.9,126.5 C9.9,126.5 22.3,144.6 36.5,137.8 L27.3,113 C27.3,113.1 25,112.3 23.9,108.1 Z" id="Path" fill="#F2F2F2"></path>
                    <path d="M41.6,107.4 C43.3,106.9 45.1,107.8 45.6,109.5 C46.1,111.2 45.2,113 43.5,113.5 L41.3,114.2 C41.6,114.5 41.8,114.7 42.1,115 L43.8,114.5 C45.5,114 47.3,114.9 47.8,116.6 C48.3,118.3 47.4,120.1 45.7,120.6 L45.3,120.7 C45.3,120.8 45.4,121 45.4,121.1 C45.4,121.2 45.5,121.4 45.5,121.5 L45.9,121.4 C47.6,120.9 49.4,121.8 49.9,123.5 C50.4,125.2 49.5,127 47.8,127.5 L46.1,128.1 C46.1,128.5 46,128.8 46,129.2 L46.4,129.1 C48.1,128.6 49.9,129.5 50.4,131.2 C50.9,132.9 50,134.7 48.3,135.2 L39.4,138.1 C39.4,138.1 39.4,138.1 39.3,138.1 C39.3,138.1 39.2,138.1 39.2,138.1 C33.5,140 26.9,135.4 24.5,128 C22.1,120.5 24.8,113 30.5,111.1 C30.9,111 31.3,110.9 31.7,110.8 C31.9,110.7 32.2,110.5 32.4,110.4 L41.6,107.4 Z" id="Path" fill="#FDB96F"></path>
                    <path d="M104.1,108.1 C104.1,108.1 121.1,107.1 118.1,126.5 C118.1,126.5 105.7,144.6 91.5,137.8 L100.7,113 C100.8,113.1 103.1,112.3 104.1,108.1 Z" id="Path" fill="#E5E5E5"></path>
                    <rect id="Rectangle" fill="#2F9481" x="28.5" y="144.8" width="35.9" height="4.2"></rect>
                    <rect id="Rectangle" fill="#2F9481" x="64.1" y="144.8" width="35.9" height="4.2"></rect>
                    <path d="M87.4,102.1 L77.3,102.1 L67.2,102.1 C64.4,102.1 62.3,104.6 62.7,107.3 L66.8,132.7 C67.2,134.9 69,136.5 71.3,136.5 L77.4,136.5 L77.4,128.8 L77.4,136.5 L83.5,136.5 C85.7,136.5 87.6,134.9 88,132.7 L92.1,107.3 C92.3,104.6 90.2,102.1 87.4,102.1 Z" id="Path" fill="#46454A"></path>
                    <path d="M86.4,107.4 C84.7,106.9 82.9,107.8 82.4,109.5 C81.9,111.2 82.8,113 84.5,113.5 L86.7,114.2 C86.4,114.5 86.2,114.7 85.9,115 L84.2,114.5 C82.5,114 80.7,114.9 80.2,116.6 C79.7,118.3 80.6,120.1 82.3,120.6 L82.7,120.7 C82.7,120.8 82.6,121 82.6,121.1 C82.6,121.2 82.5,121.4 82.5,121.5 L82.1,121.4 C80.4,120.9 78.6,121.8 78.1,123.5 C77.6,125.2 78.5,127 80.2,127.5 L81.9,128.1 C81.9,128.5 82,128.8 82,129.2 L81.6,129.1 C79.9,128.6 78.1,129.5 77.6,131.2 C77.1,132.9 78,134.7 79.7,135.2 L88.6,138.1 C88.6,138.1 88.6,138.1 88.7,138.1 C88.7,138.1 88.8,138.1 88.8,138.1 C94.5,140 101.1,135.4 103.5,128 C105.9,120.6 103.2,113 97.5,111.1 C97.1,111 96.7,110.9 96.3,110.8 C96.1,110.7 95.8,110.5 95.6,110.4 L86.4,107.4 Z" id="Path" fill="#FDB96F"></path>
                    <path d="M70.9,109.7 L68.5,109.7 C67.9,109.7 67.4,109.2 67.4,108.6 L67.4,108.3 C67.4,107.7 67.9,107.2 68.5,107.2 L70.9,107.2 C71.5,107.2 72,107.7 72,108.3 L72,108.6 C72,109.2 71.5,109.7 70.9,109.7 Z" id="Path" fill="#FFFFFF"></path>
                    <path d="M53.8,18.6 C53.8,18.6 57.2,12.3 63.2,15.2 C69.2,18.1 71.5,27.8 80.3,26.4 C89,25 90.2,14.2 87.5,5 C87.5,5 88.1,12.5 82.4,9.7 C76.7,7 65.8,-3.3 57.1,2.2 C50.8,6.3 53.8,11.7 53.8,11.7 C53.8,11.7 47.6,8.6 45.4,13.9 C42.6,20.3 47.6,26.9 47.6,26.9 C47.6,26.9 48.7,17.9 53.8,18.6 Z" id="Path" fill="#452F27"></path>
                </g>
                <g id="Group" transform="translate(140.000000, 78.000000)">
                    <rect id="Rectangle" fill="#F2F2F2" x="27.8" y="62.6" width="41.7" height="128.4"></rect>
                    <polygon id="Path" fill="#30E3D1" points="52.5 62.6 69.5 62.6 69.5 84 65.4 73.3"></polygon>
                    <polygon id="Path" fill="#E5E5E5" points="52.5 62.6 43 62.6 58.2 84 65.4 73.3"></polygon>
                    <path d="M27.8,62.6 C12.5,62.6 0.8,80 0.8,102 C0.8,126.1 14.7,149.3 32,149.3 C34.6,149.3 37.1,148.9 39.4,148.1 C39.4,148.1 22.5,141.2 29.5,121.3 C29.5,121.3 18.7,114.2 28.8,88.1 L27.8,62.6 Z" id="Path" fill="#F2F2F2"></path>
                    <polygon id="Path" fill="#30E3D1" points="55.1 247.3 32.1 247.3 32.1 191 60 191"></polygon>
                    <rect id="Rectangle" fill="#E5E5E5" transform="translate(90.283300, 126.848100) rotate(-180.000000) translate(-90.283300, -126.848100) " x="69.4333" y="62.6481" width="41.7" height="128.4"></rect>
                    <polygon id="Path" fill="#30CFC8" points="86.4 62.6 69.5 62.6 69.5 84 73.5 73.3"></polygon>
                    <polygon id="Path" fill="#CCCCCC" points="86.4 62.6 95.9 62.6 80.8 84 73.5 73.3"></polygon>
                    <polygon id="Path" fill="#30CFC8" points="83.9 247.3 106.9 247.3 106.9 191 79 191"></polygon>
                    <path d="M36.5,108.8 C35.4,108.8 34.3,108.8 33.2,108.8 C33.8,109.4 34.4,110 35.1,110.7 C35.1,100.5 34.7,82.4 49.3,82.4 C63.9,82.4 63.5,100.6 63.5,110.7 C64.1,110.1 64.7,109.5 65.4,108.8 C64.1,108.8 62.7,108.8 61.4,108.8 C59,108.8 59,112.6 61.4,112.6 C62.7,112.6 64.1,112.6 65.4,112.6 C66.4,112.6 67.3,111.7 67.3,110.7 C67.3,104.7 67.9,98.3 66,92.5 C63.6,85.3 57.5,78.6 49.4,78.6 C41.6,78.6 35.5,84.8 33,91.8 C30.8,97.8 31.4,104.4 31.4,110.7 C31.4,111.7 32.3,112.6 33.3,112.6 C34.4,112.6 35.5,112.6 36.6,112.6 C38.9,112.5 39,108.8 36.5,108.8 Z" id="Path" fill="#221F1F"></path>
                    <path d="M69.7,145.5 L92.1,145.5 C94.5,145.5 96.6,143.7 96.9,141.4 L101.3,113.9 C101.8,110.9 99.5,108.2 96.5,108.2 L69.7,108.2 L69.7,145.5 Z" id="Path" fill="#46454A"></path>
                    <path d="M69.7,145.5 L47.3,145.5 C44.9,145.5 42.8,143.7 42.5,141.4 L38.1,113.9 C37.6,110.9 39.9,108.2 42.9,108.2 L69.7,108.2 L69.7,145.5 Z" id="Path" fill="#565553"></path>
                    <path d="M45.1,115.2 C46.9,114.6 48.9,115.6 49.4,117.4 C50,119.2 49,121.2 47.2,121.7 L44.9,122.5 C45.2,122.8 45.5,123.1 45.7,123.4 L47.5,122.8 C49.3,122.2 51.3,123.2 51.8,125 C52.4,126.8 51.4,128.8 49.6,129.3 L49.1,129.5 C49.2,129.6 49.2,129.8 49.3,129.9 C49.4,130.1 49.4,130.2 49.4,130.4 L49.9,130.2 C51.7,129.6 53.7,130.6 54.2,132.4 C54.8,134.2 53.8,136.2 52,136.7 L50.1,137.3 C50.1,137.7 50,138.1 50,138.5 L50.4,138.4 C52.2,137.8 54.2,138.8 54.7,140.6 C55.3,142.4 54.3,144.4 52.5,144.9 L42.9,148 C42.9,148 42.8,148 42.8,148 C42.8,148 42.7,148 42.7,148 C36.5,150 29.3,145.1 26.7,137 C24.1,128.9 27,120.8 33.2,118.8 C33.6,118.7 34.1,118.6 34.5,118.5 C34.7,118.3 35,118.2 35.3,118.1 L45.1,115.2 Z" id="Path" fill="#F5C288"></path>
                    <path d="M110.9,62.6 C126.2,62.6 137.9,80 137.9,102 C137.9,126.1 124,149.3 106.7,149.3 C104.1,149.3 101.6,148.9 99.3,148.1 C99.3,148.1 116.2,141.2 109.2,121.3 C109.2,121.3 120,114.2 109.9,88.1 L110.9,62.6 Z" id="Path" fill="#E5E5E5"></path>
                    <path d="M93.6,115.2 C91.8,114.6 89.8,115.6 89.3,117.4 C88.7,119.2 89.7,121.2 91.5,121.7 L93.8,122.5 C93.5,122.8 93.2,123.1 93,123.4 L91.2,122.8 C89.4,122.2 87.4,123.2 86.9,125 C86.3,126.8 87.3,128.8 89.1,129.3 L89.6,129.5 C89.5,129.6 89.5,129.8 89.4,129.9 C89.3,130.1 89.3,130.2 89.3,130.4 L88.8,130.2 C87,129.6 85,130.6 84.5,132.4 C83.9,134.2 84.9,136.2 86.7,136.7 L88.6,137.3 C88.6,137.7 88.7,138.1 88.7,138.5 L88.3,138.4 C86.5,137.8 84.5,138.8 84,140.6 C83.4,142.4 84.4,144.4 86.2,144.9 L95.8,148 C95.8,148 95.9,148 95.9,148 C95.9,148 96,148 96,148 C102.2,150 109.4,145.1 112,137 C114.6,128.9 111.7,120.8 105.5,118.8 C105.1,118.7 104.6,118.6 104.2,118.5 C104,118.3 103.7,118.2 103.4,118.1 L93.6,115.2 Z" id="Path" fill="#F5C288"></path>
                    <path d="M64.3,55.4 C64.3,55.4 63.7,60.3 59.2,60.5 C59.2,60.5 61.5,59.1 60.6,56.3 C60.6,56.3 58.1,60.9 55.4,60.5 C55.4,60.5 58.1,56.5 55.8,53.6 C55.8,53.6 55.2,58 51.9,56.7 C51.9,56.7 53.8,54.2 52.2,52.3 C51,50.9 46.4,45.7 44,38.6 L43.8,34.5 C43.8,34.5 45.6,30.4 50.8,29.6 C56,28.8 73.1,20 77.1,13.8 C81.1,7.6 81.1,7.6 81.1,7.6 C81.1,7.6 86.9,27.3 91.8,29.9 C96.7,32.5 99.1,34.5 99.1,34.5 C99.1,38.5 98.2,42 95.6,44.1 C89.6,48.8 84.5,51.5 90.3,56.5 C90.3,56.5 87.8,57.5 85.6,55 C85.6,55 83.2,57.4 86.9,59.8 C86.9,59.8 83.8,62.2 81.4,56.9 C81.4,56.9 81.3,58.4 80.5,59 C79.7,59.6 79.7,59.6 79.7,59.6 L78.6,56.1" id="Path" fill="#AF4304"></path>
                    <path d="M51.1,80.4 C51.1,75.3 50.2,69 52.9,64.4 C57.1,57.2 65,57.9 72.2,57.9 C80.6,57.9 88.1,61.6 88.5,71.1 C88.7,75.4 88.5,79.7 88.5,84 C88.5,86.4 92.3,86.4 92.3,84 C92.3,78.1 93.4,71 91.3,65.3 C88.2,56.9 80.5,54.2 72.3,54.2 C64.2,54.2 56.1,53.8 50.8,61.1 C46.6,66.8 47.5,73.8 47.5,80.4 C47.4,82.8 51.1,82.8 51.1,80.4 Z" id="Path" fill="#221F1F"></path>
                    <circle id="Oval" fill="#221F1F" transform="translate(90.324610, 86.507210) rotate(-19.498511) translate(-90.324610, -86.507210) " cx="90.32461" cy="86.50721" r="5.20027489"></circle>
                    <circle id="Oval" fill="#30CFC8" transform="translate(90.324610, 86.507210) rotate(-19.498511) translate(-90.324610, -86.507210) " cx="90.32461" cy="86.50721" r="4.10021674"></circle>
                    <rect id="Rectangle" fill="#EEBD85" x="58.2" y="52.4" width="11.3" height="10.2"></rect>
                    <rect id="Rectangle" fill="#F0AF78" transform="translate(75.100800, 57.538400) rotate(-180.000000) translate(-75.100800, -57.538400) " x="69.4508" y="52.4384" width="11.3" height="10.2"></rect>
                    <path d="M69.7,57.1 C59.2,57.1 50.7,48.6 50.7,38.1 L50.7,11 L69.7,11 L69.7,57.1 Z" id="Path" fill="#F5C288"></path>
                    <path d="M69.7,57.1 C80.2,57.1 88.7,48.6 88.7,38.1 L88.7,11 L69.7,11 L69.7,57.1 Z" id="Path" fill="#F8B57D"></path>
                    <path d="M44.3,38 C44.3,34.6 48.1,33.2 53.6,32.2 C73,30.6 80,15.1 80,15.1 C80,15.1 83.3,30.5 92.3,33.2 C98.4,35.1 99.1,37.4 99.1,37.4 C100.5,28.8 93.8,15.4 90.4,9.8 C86,2.7 80,4.2 80,4.2 C80,4.2 77.7,0.9 73.4,0.9 C52.2,1.4 43.4,18.2 43.2,30.1 C43.1,34 44.3,40.4 44.3,38" id="Path" fill="#AF4304"></path>
                </g>
                <g id="Group" transform="translate(232.000000, 0.000000)">
                    <g id="Path">
                        <path d="M160.6,60.7 L12.7,60.7 C6.1,60.7 0.7,55.3 0.7,48.7 L0.7,14.6 C0.7,8 6.1,2.6 12.7,2.6 L160.6,2.6 C167.2,2.6 172.6,8 172.6,14.6 L172.6,48.7 C172.6,55.3 167.2,60.7 160.6,60.7 Z" fill="#CCCCCC"></path>
                        <path d="M160.6,58.6 L12.7,58.6 C6.1,58.6 0.7,53.2 0.7,46.6 L0.7,12.5 C0.7,5.9 6.1,0.5 12.7,0.5 L160.6,0.5 C167.2,0.5 172.6,5.9 172.6,12.5 L172.6,46.6 C172.6,53.2 167.2,58.6 160.6,58.6 Z" fill="#F2F2F2"></path>
                    </g>
                    <g transform="translate(0.000000, 9.000000)">
                        <polygon id="Path" fill="#30E3D1" points="35.6 89.7 16.2 89.7 13.9 33.5 35.6 33.5"></polygon>
                        <polygon id="Path" fill="#30CFC8" points="35.6 89.7 55.2 89.7 57.3 33.5 35.6 33.5"></polygon>
                        <path d="M35.6,41.6 C31,41.6 27.2,38 26.8,33.5 L35.6,33.5 L35.6,41.6 Z" id="Path" fill="#F3B16B"></path>
                        <path d="M35.6,41.6 C40.2,41.6 44,38 44.4,33.5 L35.6,33.5 L35.6,41.6 Z" id="Path" fill="#E4A665"></path>
                        <path d="M14,33.5 C6.1,33.5 0,42.6 0,54 C0,66.5 7.2,78.6 16.3,78.6 C17.6,78.6 18.9,78.4 20.2,78 C20.2,78 11.4,74.4 15,64.1 C15,64.1 9.4,60.4 14.7,46.8 L14,33.5 Z" id="Path" fill="#30E3D1"></path>
                        <path d="M18.5,56.6 C17.9,56.6 17.3,56.6 16.8,56.6 C17.4,57.2 18,57.8 18.7,58.5 C18.7,53.7 18.3,44.7 25.2,44.6 C32.1,44.5 31.7,53.7 31.7,58.5 C32.3,57.9 32.9,57.3 33.6,56.6 C32.9,56.6 32.2,56.6 31.5,56.6 C29.1,56.6 29.1,60.4 31.5,60.4 C32.2,60.4 32.9,60.4 33.6,60.4 C34.6,60.4 35.5,59.5 35.5,58.5 C35.5,55.2 35.8,51.7 34.7,48.5 C33.3,44.4 29.8,40.8 25.3,40.8 C20.9,40.8 17.5,44.1 16,48 C14.7,51.3 15,54.9 15,58.4 C15,59.4 15.9,60.3 16.9,60.3 C17.5,60.3 18.1,60.3 18.6,60.3 C20.9,60.4 20.9,56.6 18.5,56.6 Z" id="Path" fill="#221F1F"></path>
                        <path d="M57.2,33.5 C65.1,33.5 71.2,42.6 71.2,54 C71.2,66.5 64,78.6 54.9,78.6 C53.6,78.6 52.3,78.4 51,78 C51,78 59.8,74.4 56.2,64.1 C56.2,64.1 61.8,60.4 56.5,46.8 L57.2,33.5 Z" id="Path" fill="#30CFC8"></path>
                        <path d="M27,42.8 C27,40.4 26.6,37.6 27.6,35.4 C29.5,31.5 33.4,32 36.9,32 C40.9,32 44.2,33.5 44.6,38.1 C44.8,40.3 44.6,42.5 44.6,44.7 C44.6,47.1 48.4,47.1 48.4,44.7 C48.4,41.3 49,37.2 47.5,33.9 C45.5,29.6 41.4,28.2 37,28.2 C32.9,28.2 28.8,28 25.7,31.4 C22.8,34.6 23.2,38.7 23.2,42.7 C23.2,45.2 27,45.2 27,42.8 Z" id="Path" fill="#221F1F"></path>
                        <circle id="Oval" fill="#221F1F" transform="translate(46.516670, 45.886930) rotate(-19.498511) translate(-46.516670, -45.886930) " cx="46.51667" cy="45.88693" r="2.70014273"></circle>
                        <circle id="Oval" fill="#30CFC8" transform="translate(46.516670, 45.886930) rotate(-19.498511) translate(-46.516670, -45.886930) " cx="46.51667" cy="45.88693" r="2.10011101"></circle>
                        <rect id="Rectangle" fill="#F3B16B" x="29.7" y="28.2" width="5.9" height="5.3"></rect>
                        <rect id="Rectangle" fill="#E4A665" transform="translate(38.586300, 30.813300) rotate(-180.000000) translate(-38.586300, -30.813300) " x="35.6363" y="28.1633" width="5.9" height="5.3"></rect>
                        <path d="M35.7,30.9 C30.5,30.9 26.3,26.7 26.3,21.5 L26.3,8 L35.7,8 L35.7,30.9 Z" id="Path" fill="#FDB96F"></path>
                        <path d="M35.7,30.9 C40.9,30.9 45.1,26.7 45.1,21.5 L45.1,8 L35.7,8 L35.7,30.9 Z" id="Path" fill="#EEAD69"></path>
                        <path d="M40.6,81.9 L35.6,81.9 L35.6,98.7 C37.6,98.7 39.6,98.6 41.4,98.3 L43.1,129.5 L55.1,129.5 L55.1,93.3 L55.1,81.8 L40.6,81.8 L40.6,81.9 Z" id="Path" fill="#30CFC8"></path>
                        <path d="M35.6,81.9 L30.6,81.9 L16.1,81.9 L16.1,93.4 L16.1,129.6 L28.1,129.6 L29.8,98.4 C31.6,98.6 33.6,98.8 35.6,98.8 L35.6,81.9 Z" id="Path" fill="#30E3D1"></path>
                        <path d="M13,61.3 C13,61.3 3.4,60.8 5.1,71.7 C5.1,71.7 12.1,81.9 20.1,78.1 L14.9,64.2 C14.9,64.1 13.6,63.6 13,61.3 Z" id="Path" fill="#F2F2F2"></path>
                        <path d="M23,60.9 C23.9,60.6 25,61.1 25.3,62.1 C25.6,63 25.1,64.1 24.1,64.4 L22.9,64.8 C23,64.9 23.2,65.1 23.3,65.3 L24.3,65 C25.2,64.7 26.3,65.2 26.6,66.2 C26.9,67.2 26.4,68.2 25.4,68.5 L25.2,68.6 C25.2,68.7 25.3,68.8 25.3,68.8 C25.3,68.9 25.3,69 25.4,69.1 L25.7,69 C26.6,68.7 27.7,69.2 28,70.2 C28.3,71.1 27.8,72.2 26.8,72.5 L25.8,72.8 C25.8,73 25.8,73.2 25.7,73.4 L25.9,73.3 C26.8,73 27.9,73.5 28.2,74.5 C28.5,75.4 28,76.5 27,76.8 L22,78.4 C22,78.4 22,78.4 22,78.4 C22,78.4 22,78.4 21.9,78.4 C18.7,79.4 14.9,76.9 13.6,72.7 C12.3,68.5 13.8,64.3 17,63.2 C17.2,63.1 17.4,63.1 17.7,63 C17.8,62.9 18,62.8 18.1,62.8 L23,60.9 Z" id="Path" fill="#FDB96F"></path>
                        <path d="M58.2,61.3 C58.2,61.3 67.8,60.8 66.1,71.7 C66.1,71.7 59.1,81.9 51.1,78.1 L56.3,64.2 C56.3,64.1 57.6,63.6 58.2,61.3 Z" id="Path" fill="#E5E5E5"></path>
                        <rect id="Rectangle" fill="#2F9481" x="15.6" y="81.9" width="20.2" height="2.4"></rect>
                        <rect id="Rectangle" fill="#2F9481" x="35.6" y="81.9" width="20.2" height="2.4"></rect>
                        <path d="M48.7,57.9 L43,57.9 L37.3,57.9 C35.7,57.9 34.5,59.3 34.8,60.9 L37.1,75.2 C37.3,76.4 38.4,77.4 39.6,77.4 L43,77.4 L43,73.1 L43,77.4 L46.4,77.4 C47.7,77.4 48.7,76.5 48.9,75.2 L51.2,60.9 C51.5,59.3 50.3,57.9 48.7,57.9 Z" id="Path" fill="#46454A"></path>
                        <path d="M48.2,60.9 C47.3,60.6 46.2,61.1 45.9,62.1 C45.6,63 46.1,64.1 47.1,64.4 L48.3,64.8 C48.2,64.9 48,65.1 47.9,65.3 L46.9,65 C46,64.7 44.9,65.2 44.6,66.2 C44.3,67.2 44.8,68.2 45.8,68.5 L46,68.6 C46,68.7 45.9,68.8 45.9,68.8 C45.9,68.9 45.9,69 45.8,69.1 L45.5,69 C44.6,68.7 43.5,69.2 43.2,70.2 C42.9,71.1 43.4,72.2 44.4,72.5 L45.4,72.8 C45.4,73 45.4,73.2 45.5,73.4 L45.3,73.3 C44.4,73 43.3,73.5 43,74.5 C42.7,75.4 43.2,76.5 44.2,76.8 L49.2,78.4 C49.2,78.4 49.2,78.4 49.2,78.4 C49.2,78.4 49.2,78.4 49.3,78.4 C52.5,79.4 56.3,76.9 57.6,72.7 C59,68.5 57.4,64.3 54.2,63.2 C54,63.1 53.8,63.1 53.5,63 C53.4,62.9 53.2,62.8 53.1,62.8 L48.2,60.9 Z" id="Path" fill="#FDB96F"></path>
                        <path d="M39.4,62.1 L38.1,62.1 C37.7,62.1 37.5,61.8 37.5,61.5 L37.5,61.4 C37.5,61 37.8,60.8 38.1,60.8 L39.4,60.8 C39.8,60.8 40,61.1 40,61.4 L40,61.5 C40,61.9 39.7,62.1 39.4,62.1 Z" id="Path" fill="#FFFFFF"></path>
                        <path d="M29.8,10.8 C29.8,10.8 31.7,7.2 35.1,8.9 C38.5,10.6 39.8,16 44.7,15.2 C49.6,14.4 50.3,8.3 48.8,3.2 C48.8,3.2 49.1,7.4 45.9,5.9 C42.7,4.4 36.5,-1.5 31.6,1.7 C28,4 29.7,7 29.7,7 C29.7,7 26.2,5.3 25,8.2 C23.4,11.8 26.2,15.5 26.2,15.5 C26.2,15.5 26.9,10.5 29.8,10.8 Z" id="Path" fill="#452F27"></path>
                    </g>
                    <circle id="Oval" stroke="#031A6B" stroke-width="2" cx="35.6" cy="29.5" r="23.5"></circle>
                    <g transform="translate(80.000000, 11.000000)" fill="#B3B3B3">
                        <rect id="Rectangle" x="15.1" y="4.1" width="45.3" height="3.7"></rect>
                        <path d="M5.6,11.5 C2.5,11.5 0,9 0,5.9 C0,2.8 2.5,0.3 5.6,0.3 C8.7,0.3 11.2,2.8 11.2,5.9 C11.2,9 8.7,11.5 5.6,11.5 Z M5.6,1.4 C3.1,1.4 1.1,3.4 1.1,5.9 C1.1,8.4 3.1,10.4 5.6,10.4 C8.1,10.4 10.1,8.4 10.1,5.9 C10.1,3.4 8.1,1.4 5.6,1.4 Z" id="Shape" fill-rule="nonzero"></path>
                    </g>
                    <g transform="translate(80.000000, 23.000000)" fill="#B3B3B3">
                        <rect id="Rectangle" x="15.1" y="4.7" width="45.3" height="3.7"></rect>
                        <path d="M5.6,12.1 C2.5,12.1 0,9.6 0,6.5 C0,3.4 2.5,0.9 5.6,0.9 C8.7,0.9 11.2,3.4 11.2,6.5 C11.2,9.6 8.7,12.1 5.6,12.1 Z M5.6,2 C3.1,2 1.1,4 1.1,6.5 C1.1,9 3.1,11 5.6,11 C8.1,11 10.1,9 10.1,6.5 C10.1,4 8.1,2 5.6,2 Z" id="Shape" fill-rule="nonzero"></path>
                    </g>
                    <g transform="translate(80.000000, 36.000000)" fill="#B3B3B3">
                        <rect id="Rectangle" x="15.1" y="4.3" width="45.3" height="3.7"></rect>
                        <path d="M5.6,11.7 C2.5,11.7 0,9.2 0,6.1 C0,3 2.5,0.5 5.6,0.5 C8.7,0.5 11.2,3 11.2,6.1 C11.2,9.2 8.7,11.7 5.6,11.7 Z M5.6,1.6 C3.1,1.6 1.1,3.6 1.1,6.1 C1.1,8.6 3.1,10.6 5.6,10.6 C8.1,10.6 10.1,8.6 10.1,6.1 C10.1,3.6 8.1,1.6 5.6,1.6 Z" id="Shape" fill-rule="nonzero"></path>
                    </g>
                    <path d="M88.9,12.2 C87.7,13.8 86.5,15.4 85.2,17 C84.5,16.5 83.8,16 83.1,15.5 C81.7,14.5 80.4,16.8 81.8,17.8 C82.8,18.5 83.8,19.3 84.8,20 C85.4,20.5 86.2,20 86.6,19.5 C88.1,17.5 89.6,15.5 91.1,13.6 C92.2,12.1 89.9,10.8 88.9,12.2 Z" id="Path" fill="#30E3D1"></path>
                    <g transform="translate(81.000000, 24.000000)" id="Path" stroke="#3FAF94" stroke-linecap="round" stroke-width="0.75">
                        <path d="M4.5,4.9 C4.4,5 4.3,5.2 4.2,5.3 C4.1,5.2 3.9,5.1 3.8,5"></path>
                        <path d="M3,4.4 C2.7,4.2 2.4,4 2.2,3.8 C0.8,2.8 -0.5,5.1 0.9,6.1 C1.9,6.8 2.9,7.6 3.9,8.3 C4.5,8.8 5.3,8.3 5.7,7.8 C7.2,5.8 8.7,3.8 10.2,1.9 C11.2,0.6 8.9,-0.7 7.9,0.6 C6.9,1.9 5.9,3.3 4.8,4.6" stroke-dasharray="0.9984,0.9984"></path>
                    </g>
                    <path d="M88.9,37.3 C87.7,38.9 86.5,40.5 85.2,42.1 C84.5,41.6 83.8,41.1 83.1,40.6 C81.7,39.6 80.4,41.9 81.8,42.9 C82.8,43.6 83.8,44.4 84.8,45.1 C85.4,45.6 86.2,45.1 86.6,44.6 C88.1,42.6 89.6,40.6 91.1,38.7 C92.2,37.3 89.9,36 88.9,37.3 Z" id="Path" fill="#30E3D1"></path>
                </g>
                <g id="Group" transform="translate(0.000000, 24.000000)">
                    <g transform="translate(2.000000, 0.000000)" id="Path">
                        <path d="M160.7,60.1 L12.8,60.1 C6.2,60.1 0.8,54.7 0.8,48.1 L0.8,14 C0.8,7.4 6.2,2 12.8,2 L160.7,2 C167.3,2 172.7,7.4 172.7,14 L172.7,48.1 C172.7,54.7 167.3,60.1 160.7,60.1 Z" fill="#CCCCCC"></path>
                        <path d="M160.7,58 L12.8,58 C6.2,58 0.8,52.6 0.8,46 L0.8,12 C0.8,5.4 6.2,0 12.8,0 L160.7,0 C167.3,0 172.7,5.4 172.7,12 L172.7,46 C172.7,52.6 167.3,58 160.7,58 Z" fill="#F2F2F2"></path>
                    </g>
                    <g transform="translate(0.000000, 8.000000)">
                        <polygon id="Path" fill="#30E3D1" points="37.7 95.3 17.4 95.3 15.1 36.7 37.7 36.7"></polygon>
                        <polygon id="Path" fill="#30CFC8" points="37.7 95.3 58.1 95.3 60.3 36.7 37.7 36.7"></polygon>
                        <path d="M37.7,45.1 C32.9,45.1 28.9,41.4 28.6,36.7 L37.7,36.7 L37.7,45.1 Z" id="Path" fill="#8E644C"></path>
                        <path d="M37.7,45.1 C42.5,45.1 46.5,41.4 46.8,36.7 L37.7,36.7 L37.7,45.1 Z" id="Path" fill="#8E5E47"></path>
                        <path d="M15.1,36.7 C6.8,36.7 0.5,46.1 0.5,58.1 C0.5,71.1 8,83.8 17.4,83.8 C18.8,83.8 20.1,83.6 21.4,83.1 C21.4,83.1 12.2,79.4 16,68.6 C16,68.6 10.2,64.8 15.6,50.6 L15.1,36.7 Z" id="Path" fill="#30E3D1"></path>
                        <path d="M19.8,60.9 C19.2,60.9 18.6,60.9 18,60.9 C18.6,61.5 19.2,62.1 19.9,62.8 C19.9,57.7 19.5,48.3 26.8,48.3 C34.1,48.2 33.7,57.8 33.7,62.8 C34.3,62.2 34.9,61.6 35.6,60.9 C34.9,60.9 34.1,60.9 33.4,60.9 C31,60.9 31,64.7 33.4,64.7 C34.1,64.7 34.9,64.7 35.6,64.7 C36.6,64.7 37.5,63.8 37.5,62.8 C37.5,59.4 37.8,55.7 36.7,52.4 C35.2,48.2 31.6,44.5 26.9,44.5 C22.4,44.5 18.8,48 17.3,52 C16,55.4 16.3,59.2 16.3,62.8 C16.3,63.8 17.2,64.7 18.2,64.7 C18.8,64.7 19.4,64.7 20,64.7 C22.2,64.6 22.2,60.9 19.8,60.9 Z" id="Path" fill="#221F1F"></path>
                        <path d="M60.2,36.7 C68.5,36.7 74.8,46.1 74.8,58.1 C74.8,71.1 67.3,83.8 57.9,83.8 C56.5,83.8 55.2,83.6 53.9,83.1 C53.9,83.1 63.1,79.4 59.3,68.6 C59.3,68.6 65.1,64.8 59.7,50.6 L60.2,36.7 Z" id="Path" fill="#30CFC8"></path>
                        <path d="M28.6,46.3 C28.6,43.8 28.2,40.8 29.3,38.6 C31.2,34.5 35.4,35 39.1,35 C43.3,35 46.8,36.6 47.2,41.4 C47.4,43.7 47.2,46 47.2,48.3 C47.2,50.7 51,50.7 51,48.3 C51,44.7 51.6,40.5 50.1,37.1 C48,32.6 43.8,31.2 39.2,31.2 C34.9,31.2 30.7,31 27.5,34.5 C24.5,37.8 25,42.1 25,46.2 C24.9,48.7 28.6,48.7 28.6,46.3 Z" id="Path" fill="#221F1F"></path>
                        <circle id="Oval" fill="#221F1F" transform="translate(49.005080, 49.610920) rotate(-19.498511) translate(-49.005080, -49.610920) " cx="49.00508" cy="49.61092" r="2.80014802"></circle>
                        <circle id="Oval" fill="#30CFC8" transform="translate(49.005080, 49.610920) rotate(-19.498511) translate(-49.005080, -49.610920) " cx="49.00508" cy="49.61092" r="2.2001163"></circle>
                        <rect id="Rectangle" fill="#8E644C" x="31.6" y="31.1" width="6.1" height="5.5"></rect>
                        <rect id="Rectangle" fill="#8E5E47" transform="translate(40.787100, 33.964200) rotate(-180.000000) translate(-40.787100, -33.964200) " x="37.7371" y="31.2142" width="6.1" height="5.5"></rect>
                        <path d="M37.7,33.4 C32,33.4 27.4,28.8 27.4,23.1 L27.4,8.4 L37.7,8.4 L37.7,33.4 Z" id="Path" fill="#93674F"></path>
                        <path d="M37.7,33.4 C43.4,33.4 48,28.8 48,23.1 L48,8.4 L37.7,8.4 L37.7,33.4 Z" id="Path" fill="#936149"></path>
                        <path d="M53.5,14.2 C53.5,12.7 52.4,11.3 50.9,10.8 C51,10.5 51,10.2 51,9.9 C51,8.2 49.9,6.8 48.4,6.2 C48.4,6.2 48.4,6.2 48.4,6.2 C48.4,4.2 46.5,2.5 44.2,2.5 C43.8,2.5 43.3,2.6 42.9,2.7 C42.2,1.6 40.8,0.9 39.2,0.9 C37.5,0.9 36.1,1.8 35.4,3 C34.7,2.5 33.8,2.3 32.9,2.3 C30.6,2.3 28.7,4 28.7,6 C28.7,6 28.7,6 28.7,6 C26.4,6.1 24.6,7.8 24.5,10 C22.9,10.5 21.8,11.9 21.8,13.4 C21.8,14.9 22.8,16.2 24.3,16.8 C24.2,17.2 24.1,17.6 24.1,18 C24.1,19.8 25.5,21.2 27.3,21.2 C29.1,21.2 30.5,19.8 30.5,18 C30.5,18 30.5,17.9 30.5,17.9 C31.9,17.5 33,16.4 33.4,15.1 C34.9,14.5 35.9,13 35.9,11.3 C36.6,11.8 37.4,12.1 38.3,12.1 C38.7,12.1 39.1,12 39.4,11.9 C39.6,13.3 40.6,14.5 41.9,15 C42.3,16.3 43.4,17.4 44.8,17.8 C44.8,17.8 44.8,17.9 44.8,17.9 C44.8,19.7 46.2,21.1 48,21.1 C49.8,21.1 51.2,19.7 51.2,17.9 C51.2,17.8 51.2,17.7 51.2,17.5 C52.7,16.8 53.5,15.6 53.5,14.2 Z" id="Path" fill="#000000"></path>
                        <path d="M42.9,87.2 L37.7,87.2 L37.7,104.7 C39.8,104.7 41.9,104.6 43.8,104.3 L45.5,136.9 L58,136.9 L58,99.2 L58,87.2 L42.9,87.2 Z" id="Path" fill="#30CFC8"></path>
                        <path d="M37.7,87.2 L32.5,87.2 L17.4,87.2 L17.4,99.2 L17.4,136.9 L29.9,136.9 L31.6,104.3 C33.5,104.6 35.6,104.7 37.7,104.7 L37.7,87.2 Z" id="Path" fill="#30E3D1"></path>
                        <path d="M14.1,65.6 C14.1,65.6 4.1,65 5.9,76.4 C5.9,76.4 13.2,87 21.5,83 L16.1,68.5 C16.1,68.5 14.7,68.1 14.1,65.6 Z" id="Path" fill="#F2F2F2"></path>
                        <path d="M24.5,65.2 C25.5,64.9 26.5,65.4 26.9,66.4 C27.2,67.4 26.7,68.4 25.7,68.8 L24.4,69.2 C24.6,69.4 24.7,69.5 24.9,69.7 L25.9,69.4 C26.9,69.1 27.9,69.6 28.3,70.6 C28.6,71.6 28.1,72.6 27.1,73 L26.8,73.1 C26.8,73.2 26.9,73.3 26.9,73.3 C26.9,73.4 26.9,73.5 27,73.6 L27.3,73.5 C28.3,73.2 29.3,73.7 29.7,74.7 C30,75.7 29.5,76.7 28.5,77.1 L27.5,77.4 C27.5,77.6 27.5,77.8 27.4,78 L27.6,77.9 C28.6,77.6 29.6,78.1 30,79.1 C30.3,80.1 29.8,81.1 28.8,81.5 L23.6,83.2 C23.6,83.2 23.6,83.2 23.6,83.2 C23.6,83.2 23.6,83.2 23.5,83.2 C20.1,84.3 16.3,81.6 14.8,77.2 C13.4,72.8 15,68.4 18.3,67.3 C18.5,67.2 18.8,67.2 19,67.1 C19.1,67 19.3,66.9 19.4,66.9 L24.5,65.2 Z" id="Path" fill="#93674F"></path>
                        <path d="M61.2,65.6 C61.2,65.6 71.2,65 69.4,76.4 C69.4,76.4 62.1,87 53.8,83 L59.2,68.5 C59.2,68.5 60.6,68.1 61.2,65.6 Z" id="Path" fill="#E5E5E5"></path>
                        <rect id="Rectangle" fill="#2F9481" x="16.8" y="87.2" width="21.1" height="2.5"></rect>
                        <rect id="Rectangle" fill="#2F9481" x="37.7" y="87.2" width="21.1" height="2.5"></rect>
                        <path d="M51.4,62.1 L45.4,62.1 L39.4,62.1 C37.8,62.1 36.5,63.6 36.8,65.2 L39.2,80.1 C39.4,81.4 40.5,82.3 41.8,82.3 L45.4,82.3 L45.4,77.8 L45.4,82.3 L49,82.3 C50.3,82.3 51.4,81.4 51.6,80.1 L54,65.2 C54.2,63.5 53,62.1 51.4,62.1 Z" id="Path" fill="#46454A"></path>
                        <path d="M50.8,65.2 C49.8,64.9 48.8,65.4 48.4,66.4 C48,67.4 48.6,68.4 49.6,68.8 L50.9,69.2 C50.7,69.4 50.6,69.5 50.4,69.7 L49.4,69.4 C48.4,69.1 47.4,69.6 47,70.6 C46.7,71.6 47.2,72.6 48.2,73 L48.5,73.1 C48.5,73.2 48.4,73.3 48.4,73.3 C48.4,73.4 48.4,73.5 48.3,73.6 L48,73.5 C47,73.2 46,73.7 45.6,74.7 C45.3,75.7 45.8,76.7 46.8,77.1 L47.8,77.4 C47.8,77.6 47.8,77.8 47.9,78 L47.7,77.9 C46.7,77.6 45.7,78.1 45.3,79.1 C45,80.1 45.5,81.1 46.5,81.5 L51.7,83.2 C51.7,83.2 51.7,83.2 51.7,83.2 C51.7,83.2 51.7,83.2 51.8,83.2 C55.2,84.3 59,81.6 60.5,77.2 C61.9,72.8 60.3,68.4 57,67.3 C56.8,67.2 56.5,67.2 56.3,67.1 C56.2,67 56,66.9 55.9,66.9 L50.8,65.2 Z" id="Path" fill="#93674F"></path>
                        <path d="M41.6,66.6 L40.3,66.6 C39.9,66.6 39.6,66.3 39.6,65.9 L39.6,65.8 C39.6,65.4 39.9,65.1 40.3,65.1 L41.6,65.1 C42,65.1 42.3,65.4 42.3,65.8 L42.3,65.9 C42.3,66.2 42,66.6 41.6,66.6 Z" id="Path" fill="#FFFFFF"></path>
                    </g>
                    <circle id="Oval" stroke="#031A6B" stroke-width="2" cx="37.7" cy="29" r="23.5"></circle>
                    <path d="M100.3,12.7 L100.3,24.6 C100.3,28.1 103.1,30.9 106.6,30.9 L121,30.9 C124.5,30.9 127.3,28.1 127.3,24.6 L127.3,12.7 L100.3,12.7 Z M122.7,14.8 L115.3,19.6 C114.3,20.2 113.1,20.2 112.2,19.6 L104.8,14.8 L122.7,14.8 Z M121,28.8 L106.6,28.8 C104.3,28.8 102.4,26.9 102.4,24.6 L102.4,15.7 L111.1,21.3 C111.9,21.8 112.9,22.1 113.8,22.1 C114.7,22.1 115.7,21.8 116.5,21.3 L125.2,15.7 L125.2,24.6 C125.3,26.9 123.4,28.8 121,28.8 Z" id="Shape" fill="#B3B3B3" fill-rule="nonzero"></path>
                    <rect id="Rectangle" fill="#B3B3B3" x="86.5" y="38.5" width="54.6" height="3.7"></rect>
                </g>
            </g>
        </g>
    </g>
</svg>